<?xml version="1.0" encoding="UTF-8" standalone="no"?>
<!-- Created with Inkscape (http://www.inkscape.org/) -->

<svg
   xmlns:dc="http://purl.org/dc/elements/1.1/"
   xmlns:cc="http://creativecommons.org/ns#"
   xmlns:rdf="http://www.w3.org/1999/02/22-rdf-syntax-ns#"
   xmlns:svg="http://www.w3.org/2000/svg"
   xmlns="http://www.w3.org/2000/svg"
   xmlns:sodipodi="http://sodipodi.sourceforge.net/DTD/sodipodi-0.dtd"
   xmlns:inkscape="http://www.inkscape.org/namespaces/inkscape"
   width="256"
   height="192"
   viewBox="0 0 67.733332 50.800001"
   version="1.1"
   id="svg8"
   inkscape:version="0.92.2 5c3e80d, 2017-08-06"
   sodipodi:docname="lower_screen.svg"
   inkscape:export-filename="/home/georg/Partition E/Software/Videospiele/Nintendo/Nintendo DS/NDS Software/SuperCard/SuperCard DSTWO/DSTWO-Themes/[Quellen] DSTWO-Theme_OpenDS/loading.png"
   inkscape:export-xdpi="96"
   inkscape:export-ydpi="96">
  <defs
     id="defs2">
    <clipPath
       clipPathUnits="userSpaceOnUse"
       id="clipPath849">
      <rect
         style="opacity:0.21799999;fill:#0000ff;stroke-width:0.26458332"
         id="rect851"
         width="67.73333"
         height="50.799999"
         x="0"
         y="246.19998" />
    </clipPath>
    <clipPath
       clipPathUnits="userSpaceOnUse"
       id="clipPath1369">
      <rect
         ry="1.8520776"
         rx="1.8520776"
         y="385.37082"
         x="0.79374999"
         height="13.49375"
         width="15.08125"
         id="rect1371"
         style="opacity:1;fill:#ffffff;fill-opacity:1;stroke:none;stroke-width:0.5;stroke-miterlimit:4;stroke-dasharray:none" />
    </clipPath>
    <clipPath
       clipPathUnits="userSpaceOnUse"
       id="clipPath1517">
      <rect
         style="opacity:1;fill:#007ea7;fill-opacity:1;stroke:none;stroke-width:0.48038447;stroke-linecap:round;stroke-miterlimit:4;stroke-dasharray:none;stroke-opacity:1"
         id="rect1519"
         width="67.73333"
         height="50.799999"
         x="-7.5199102e-15"
         y="171.55629" />
    </clipPath>
    <clipPath
       clipPathUnits="userSpaceOnUse"
       id="clipPath953">
      <rect
         style="opacity:0.21799999;fill:#0000ff;stroke-width:0.26458332"
         id="rect955"
         width="67.73333"
         height="50.799999"
         x="-2.1166673"
         y="246.19998" />
    </clipPath>
    <filter
       inkscape:collect="always"
       style="color-interpolation-filters:sRGB"
       id="filter1041"
       x="-0.010235293"
       width="1.0204706"
       y="-0.014500001"
       height="1.029">
      <feGaussianBlur
         inkscape:collect="always"
         stdDeviation="0.38364581"
         id="feGaussianBlur1043" />
    </filter>
    <filter
       inkscape:collect="always"
       style="color-interpolation-filters:sRGB"
       id="filter1315"
       x="-0.30875244"
       width="1.6175049"
       y="-0.29173011"
       height="1.5834602">
      <feGaussianBlur
         inkscape:collect="always"
         stdDeviation="6.1750488"
         id="feGaussianBlur1317" />
    </filter>
  </defs>
  <sodipodi:namedview
     id="base"
     pagecolor="#ffffff"
     bordercolor="#666666"
     borderopacity="1.0"
     inkscape:pageopacity="0.0"
     inkscape:pageshadow="2"
     inkscape:zoom="2"
     inkscape:cx="75.825966"
     inkscape:cy="128.9391"
     inkscape:document-units="mm"
     inkscape:current-layer="layer1"
     showgrid="true"
     units="px"
     inkscape:snap-global="true"
     inkscape:window-width="1920"
     inkscape:window-height="1020"
     inkscape:window-x="0"
     inkscape:window-y="28"
     inkscape:window-maximized="1"
     inkscape:snap-bbox="true"
     inkscape:snap-smooth-nodes="true"
     inkscape:snap-intersection-paths="true"
     inkscape:bbox-nodes="true"
     inkscape:bbox-paths="true"
     inkscape:object-paths="true"
     inkscape:snap-object-midpoints="true"
     inkscape:snap-bbox-edge-midpoints="true"
     inkscape:snap-bbox-midpoints="true"
     inkscape:snap-center="true">
    <inkscape:grid
       type="xygrid"
       id="grid4742"
       empspacing="4" />
  </sodipodi:namedview>
  <metadata
     id="metadata5">
    <rdf:RDF>
      <cc:Work
         rdf:about="">
        <dc:format>image/svg+xml</dc:format>
        <dc:type
           rdf:resource="http://purl.org/dc/dcmitype/StillImage" />
        <dc:title></dc:title>
      </cc:Work>
    </rdf:RDF>
  </metadata>
  <g
     inkscape:label="Ebene 1"
     inkscape:groupmode="layer"
     id="layer1"
     transform="translate(0,-246.19998)">
    <g
       id="g1508"
       transform="translate(2.1166673,-6.6666666e-6)"
       clip-path="url(#clipPath953)"
       style="opacity:1;filter:url(#filter1041)">
      <g
         id="g1307"
         style="">
        <path
           style="fill:#00f4c0;fill-opacity:1;stroke:none;stroke-width:0.26458332px;stroke-linecap:butt;stroke-linejoin:miter;stroke-opacity:1"
           d="m 47.625,240.90832 5.291667,5.29167 -5.291667,5.29165 -5.291667,-5.29165 z"
           id="path1123"
           inkscape:connector-curvature="0" />
        <path
           inkscape:connector-curvature="0"
           id="path1129"
           d="m 37.041667,240.90832 5.291666,5.29167 -5.291666,5.29165 L 31.75,246.19999 Z"
           style="fill:#afe901;fill-opacity:1;stroke:none;stroke-width:0.26458332px;stroke-linecap:butt;stroke-linejoin:miter;stroke-opacity:1" />
        <path
           inkscape:connector-curvature="0"
           id="path1133"
           d="m 26.458333,240.90832 5.291667,5.29167 -5.291667,5.29165 -5.291666,-5.29165 z"
           style="fill:#00aca8;fill-opacity:1;stroke:none;stroke-width:0.26458332px;stroke-linecap:butt;stroke-linejoin:miter;stroke-opacity:1" />
        <path
           inkscape:connector-curvature="0"
           id="path1141"
           d="m 15.875,240.90832 5.291667,5.29167 -5.291667,5.29165 -5.291667,-5.29165 z"
           style="fill:#83e1e3;fill-opacity:1;stroke:none;stroke-width:0.26458332px;stroke-linecap:butt;stroke-linejoin:miter;stroke-opacity:1" />
        <path
           inkscape:connector-curvature="0"
           id="path1145"
           d="m 5.2916667,240.90832 5.2916663,5.29167 -5.2916663,5.29165 L 6.6666666e-8,246.19999 Z"
           style="fill:#84f8a3;fill-opacity:1;stroke:none;stroke-width:0.26458332px;stroke-linecap:butt;stroke-linejoin:miter;stroke-opacity:1" />
        <path
           style="fill:#83e1e3;fill-opacity:1;stroke:none;stroke-width:0.26458332px;stroke-linecap:butt;stroke-linejoin:miter;stroke-opacity:1"
           d="M -5.2916667,240.90832 3.3333333e-7,246.19999 -5.2916667,251.49164 -10.583334,246.19999 Z"
           id="path1147"
           inkscape:connector-curvature="0" />
        <path
           style="fill:#00aca8;fill-opacity:1;stroke:none;stroke-width:0.26458332px;stroke-linecap:butt;stroke-linejoin:miter;stroke-opacity:1"
           d="m 58.208333,240.90832 5.291667,5.29167 -5.291667,5.29165 -5.291666,-5.29165 z"
           id="path1153"
           inkscape:connector-curvature="0" />
        <path
           inkscape:connector-curvature="0"
           id="path1157"
           d="m 68.791666,240.90832 5.291667,5.29167 -5.291667,5.29166 L 63.5,246.19999 Z"
           style="fill:#348600;fill-opacity:1;stroke:none;stroke-width:0.26458332px;stroke-linecap:butt;stroke-linejoin:miter;stroke-opacity:1" />
      </g>
      <g
         id="g1317"
         style="">
        <path
           style="fill:#09a39d;fill-opacity:1;stroke:none;stroke-width:0.26458332px;stroke-linecap:butt;stroke-linejoin:miter;stroke-opacity:1"
           d="M 0,246.19998 5.2916666,251.49165 0,256.78331 -5.2916666,251.49165 Z"
           id="path1115"
           inkscape:connector-curvature="0" />
        <path
           style="fill:#015b42;fill-opacity:1;stroke:none;stroke-width:0.26458332px;stroke-linecap:butt;stroke-linejoin:miter;stroke-opacity:1"
           d="m 52.916667,246.19998 5.291666,5.29167 -5.291666,5.29166 -5.291667,-5.29166 z"
           id="path1119"
           inkscape:connector-curvature="0" />
        <path
           inkscape:connector-curvature="0"
           id="path1125"
           d="m 42.333333,246.19998 5.291667,5.29167 -5.291667,5.29166 -5.291666,-5.29166 z"
           style="fill:#12c933;fill-opacity:1;stroke:none;stroke-width:0.26458332px;stroke-linecap:butt;stroke-linejoin:miter;stroke-opacity:1" />
        <path
           style="fill:#94d59b;fill-opacity:1;stroke:none;stroke-width:0.26458332px;stroke-linecap:butt;stroke-linejoin:miter;stroke-opacity:1"
           d="m 31.75,246.19998 5.291667,5.29167 -5.291667,5.29166 -5.291667,-5.29166 z"
           id="path1131"
           inkscape:connector-curvature="0" />
        <path
           style="fill:#00c9b7;fill-opacity:1;stroke:none;stroke-width:0.26458332px;stroke-linecap:butt;stroke-linejoin:miter;stroke-opacity:1"
           d="m 21.166667,246.19998 5.291666,5.29167 -5.291666,5.29166 -5.291667,-5.29166 z"
           id="path1135"
           inkscape:connector-curvature="0" />
        <path
           style="fill:#348600;fill-opacity:1;stroke:none;stroke-width:0.26458332px;stroke-linecap:butt;stroke-linejoin:miter;stroke-opacity:1"
           d="m 10.583333,246.19998 5.291667,5.29167 -5.291667,5.29166 -5.2916663,-5.29166 z"
           id="path1143"
           inkscape:connector-curvature="0" />
        <path
           style="fill:#101a01;fill-opacity:1;stroke:none;stroke-width:0.26458332px;stroke-linecap:butt;stroke-linejoin:miter;stroke-opacity:1"
           d="m 63.499999,246.19998 5.291667,5.29167 -5.291667,5.29166 -5.291666,-5.29166 z"
           id="path1155"
           inkscape:connector-curvature="0" />
        <path
           inkscape:connector-curvature="0"
           id="path1159"
           d="m 74.083334,246.19998 5.291666,5.29167 -5.291666,5.29166 -5.291667,-5.29166 z"
           style="fill:#015b42;fill-opacity:1;stroke:none;stroke-width:0.26458332px;stroke-linecap:butt;stroke-linejoin:miter;stroke-opacity:1" />
      </g>
      <g
         id="g1327"
         style="">
        <path
           inkscape:connector-curvature="0"
           id="path1117"
           d="m 68.791667,251.49165 5.291666,5.29167 -5.291666,5.29166 L 63.5,256.78332 Z"
           style="fill:#007ea7;fill-opacity:1;stroke:none;stroke-width:0.26458332px;stroke-linecap:butt;stroke-linejoin:miter;stroke-opacity:1" />
        <path
           inkscape:connector-curvature="0"
           id="path1121"
           d="m 47.625,251.49165 5.291667,5.29167 -5.291667,5.29166 -5.291667,-5.29166 z"
           style="fill:#01ef5b;fill-opacity:1;stroke:none;stroke-width:0.26458332px;stroke-linecap:butt;stroke-linejoin:miter;stroke-opacity:1" />
        <path
           style="fill:#00939b;fill-opacity:1;stroke:none;stroke-width:0.26458332px;stroke-linecap:butt;stroke-linejoin:miter;stroke-opacity:1"
           d="m 37.041667,251.49165 5.291666,5.29167 -5.291666,5.29166 L 31.75,256.78332 Z"
           id="path1127"
           inkscape:connector-curvature="0" />
        <path
           inkscape:connector-curvature="0"
           id="path1137"
           d="m 15.875,251.49165 5.291667,5.29167 -5.291667,5.29166 -5.291667,-5.29166 z"
           style="fill:#efdb00;fill-opacity:1;stroke:none;stroke-width:0.26458332px;stroke-linecap:butt;stroke-linejoin:miter;stroke-opacity:1" />
        <path
           style="fill:#101a01;fill-opacity:1;stroke:none;stroke-width:0.26458332px;stroke-linecap:butt;stroke-linejoin:miter;stroke-opacity:1"
           d="m 5.2916667,251.49165 5.2916663,5.29167 -5.2916663,5.29166 L 6.6666666e-8,256.78332 Z"
           id="path1139"
           inkscape:connector-curvature="0" />
        <path
           inkscape:connector-curvature="0"
           id="path1149"
           d="m 26.458333,251.49165 5.291667,5.29167 -5.291667,5.29166 -5.291666,-5.29166 z"
           style="fill:#101a01;fill-opacity:1;stroke:none;stroke-width:0.26458332px;stroke-linecap:butt;stroke-linejoin:miter;stroke-opacity:1" />
        <path
           style="fill:#efdb00;fill-opacity:1;stroke:none;stroke-width:0.26458332px;stroke-linecap:butt;stroke-linejoin:miter;stroke-opacity:1"
           d="m 58.208333,251.49165 5.291667,5.29167 -5.291667,5.29166 -5.291667,-5.29166 z"
           id="path1151"
           inkscape:connector-curvature="0" />
        <path
           style="fill:#015b42;fill-opacity:1;stroke:none;stroke-width:0.26458332px;stroke-linecap:butt;stroke-linejoin:miter;stroke-opacity:1"
           d="M -5.2916662,251.49165 -1.6666665e-7,256.78332 -5.2916662,262.07498 -10.583333,256.78332 Z"
           id="path1161"
           inkscape:connector-curvature="0" />
      </g>
      <g
         id="g1337"
         style="">
        <path
           style="fill:#efdb00;fill-opacity:1;stroke:none;stroke-width:0.26458332px;stroke-linecap:butt;stroke-linejoin:miter;stroke-opacity:1"
           d="M 0,256.78332 5.291667,262.07499 0,267.36664 -5.291667,262.07499 Z"
           id="path1163"
           inkscape:connector-curvature="0" />
        <path
           style="fill:#007ea7;fill-opacity:1;stroke:none;stroke-width:0.26458332px;stroke-linecap:butt;stroke-linejoin:miter;stroke-opacity:1"
           d="m 10.583334,256.78332 5.291666,5.29167 -5.291666,5.29165 -5.2916672,-5.29165 z"
           id="path1165"
           inkscape:connector-curvature="0" />
        <path
           inkscape:connector-curvature="0"
           id="path1167"
           d="m 21.166667,256.78332 5.291666,5.29167 -5.291666,5.29166 -5.291667,-5.29166 z"
           style="fill:#00c9b7;fill-opacity:1;stroke:none;stroke-width:0.26458332px;stroke-linecap:butt;stroke-linejoin:miter;stroke-opacity:1" />
        <path
           inkscape:connector-curvature="0"
           id="path1169"
           d="m 31.75,256.78332 5.291667,5.29167 -5.291667,5.29166 -5.291667,-5.29166 z"
           style="fill:#348600;fill-opacity:1;stroke:none;stroke-width:0.26458332px;stroke-linecap:butt;stroke-linejoin:miter;stroke-opacity:1" />
        <path
           style="fill:#007ea7;fill-opacity:1;stroke:none;stroke-width:0.26458332px;stroke-linecap:butt;stroke-linejoin:miter;stroke-opacity:1"
           d="m 42.333334,256.78332 5.291666,5.29167 -5.291666,5.29165 -5.291667,-5.29165 z"
           id="path1171"
           inkscape:connector-curvature="0" />
        <path
           inkscape:connector-curvature="0"
           id="path1173"
           d="m 52.916667,256.78332 5.291667,5.29167 -5.291667,5.29165 -5.291667,-5.29165 z"
           style="fill:#00f4c0;fill-opacity:1;stroke:none;stroke-width:0.26458332px;stroke-linecap:butt;stroke-linejoin:miter;stroke-opacity:1" />
        <path
           style="fill:#348600;fill-opacity:1;stroke:none;stroke-width:0.26458332px;stroke-linecap:butt;stroke-linejoin:miter;stroke-opacity:1"
           d="m 63.499999,256.78332 5.291667,5.29167 -5.291667,5.29166 -5.291666,-5.29166 z"
           id="path1175"
           inkscape:connector-curvature="0" />
        <path
           style="fill:#00f4c0;fill-opacity:1;stroke:none;stroke-width:0.26458332px;stroke-linecap:butt;stroke-linejoin:miter;stroke-opacity:1"
           d="m 74.083333,256.78332 5.291667,5.29167 -5.291667,5.29165 -5.291667,-5.29165 z"
           id="path1177"
           inkscape:connector-curvature="0" />
      </g>
      <g
         id="g1347"
         style="">
        <path
           style="fill:#348600;fill-opacity:1;stroke:none;stroke-width:0.26458332px;stroke-linecap:butt;stroke-linejoin:miter;stroke-opacity:1"
           d="m 5.2916665,262.07498 5.2916675,5.29167 -5.2916675,5.29166 L -5e-7,267.36665 Z"
           id="path1181"
           inkscape:connector-curvature="0" />
        <path
           inkscape:connector-curvature="0"
           id="path1183"
           d="M -5.2916662,262.07498 -1.6666667e-7,267.36665 -5.2916662,272.65831 -10.583333,267.36665 Z"
           style="fill:#00c9b7;fill-opacity:1;stroke:none;stroke-width:0.26458332px;stroke-linecap:butt;stroke-linejoin:miter;stroke-opacity:1" />
        <path
           style="fill:#12c933;fill-opacity:1;stroke:none;stroke-width:0.26458332px;stroke-linecap:butt;stroke-linejoin:miter;stroke-opacity:1"
           d="m 15.875,262.07498 5.291666,5.29167 -5.291667,5.29166 -5.291666,-5.29166 z"
           id="path1185"
           inkscape:connector-curvature="0" />
        <path
           inkscape:connector-curvature="0"
           id="path1189"
           d="m 26.458333,262.07498 5.291667,5.29167 -5.291667,5.29166 -5.291667,-5.29166 z"
           style="fill:#efdb00;fill-opacity:1;stroke:none;stroke-width:0.26458332px;stroke-linecap:butt;stroke-linejoin:miter;stroke-opacity:1" />
        <path
           style="fill:#015b42;fill-opacity:1;stroke:none;stroke-width:0.26458332px;stroke-linecap:butt;stroke-linejoin:miter;stroke-opacity:1"
           d="m 37.041667,262.07498 5.291666,5.29167 -5.291666,5.29166 L 31.75,267.36665 Z"
           id="path1191"
           inkscape:connector-curvature="0" />
        <path
           inkscape:connector-curvature="0"
           id="path1199"
           d="m 47.625,262.07498 5.291667,5.29167 -5.291667,5.29166 -5.291667,-5.29166 z"
           style="fill:#efdb00;fill-opacity:1;stroke:none;stroke-width:0.26458332px;stroke-linecap:butt;stroke-linejoin:miter;stroke-opacity:1" />
        <path
           inkscape:connector-curvature="0"
           id="path1201"
           d="m 58.208333,262.07498 5.291667,5.29167 -5.291667,5.29166 -5.291666,-5.29166 z"
           style="fill:#101a01;fill-opacity:1;stroke:none;stroke-width:0.26458332px;stroke-linecap:butt;stroke-linejoin:miter;stroke-opacity:1" />
        <path
           style="fill:#84f8a3;fill-opacity:1;stroke:none;stroke-width:0.26458332px;stroke-linecap:butt;stroke-linejoin:miter;stroke-opacity:1"
           d="m 68.791667,262.07499 5.291666,5.29167 -5.291666,5.29165 L 63.5,267.36666 Z"
           id="path1207"
           inkscape:connector-curvature="0" />
      </g>
      <g
         id="g1357"
         style="">
        <path
           style="fill:#101a01;fill-opacity:1;stroke:none;stroke-width:0.26458332px;stroke-linecap:butt;stroke-linejoin:miter;stroke-opacity:1"
           d="m -5e-7,267.36665 5.291667,5.29167 -5.291667,5.29166 -5.291666,-5.29166 z"
           id="path1179"
           inkscape:connector-curvature="0" />
        <path
           inkscape:connector-curvature="0"
           id="path1187"
           d="m 10.583334,267.36665 5.291666,5.29167 -5.291666,5.29166 -5.2916672,-5.29166 z"
           style="fill:#00c9b7;fill-opacity:1;stroke:none;stroke-width:0.26458332px;stroke-linecap:butt;stroke-linejoin:miter;stroke-opacity:1" />
        <path
           inkscape:connector-curvature="0"
           id="path1193"
           d="m 31.749999,267.36665 5.291667,5.29167 -5.291667,5.29166 -5.291666,-5.29166 z"
           style="fill:#101a01;fill-opacity:1;stroke:none;stroke-width:0.26458332px;stroke-linecap:butt;stroke-linejoin:miter;stroke-opacity:1" />
        <path
           style="fill:#007ea7;fill-opacity:1;stroke:none;stroke-width:0.26458332px;stroke-linecap:butt;stroke-linejoin:miter;stroke-opacity:1"
           d="m 21.166667,267.36665 5.291666,5.29167 -5.291666,5.29166 -5.291667,-5.29166 z"
           id="path1195"
           inkscape:connector-curvature="0" />
        <path
           inkscape:connector-curvature="0"
           id="path1197"
           d="m 42.333333,267.36665 5.291667,5.29167 -5.291667,5.29165 -5.291667,-5.29165 z"
           style="fill:#00f4c0;fill-opacity:1;stroke:none;stroke-width:0.26458332px;stroke-linecap:butt;stroke-linejoin:miter;stroke-opacity:1" />
        <path
           style="fill:#348600;fill-opacity:1;stroke:none;stroke-width:0.26458332px;stroke-linecap:butt;stroke-linejoin:miter;stroke-opacity:1"
           d="m 52.916666,267.36665 5.291667,5.29167 -5.291667,5.29166 -5.291666,-5.29166 z"
           id="path1203"
           inkscape:connector-curvature="0" />
        <path
           style="fill:#00aca8;fill-opacity:1;stroke:none;stroke-width:0.26458332px;stroke-linecap:butt;stroke-linejoin:miter;stroke-opacity:1"
           d="m 63.499999,267.36665 5.291667,5.29167 -5.291667,5.29165 -5.291666,-5.29165 z"
           id="path1205"
           inkscape:connector-curvature="0" />
        <path
           style="fill:#12c933;fill-opacity:1;stroke:none;stroke-width:0.26458332px;stroke-linecap:butt;stroke-linejoin:miter;stroke-opacity:1"
           d="m 74.083333,267.36665 5.291667,5.29167 -5.291667,5.29166 -5.291666,-5.29166 z"
           id="path1209"
           inkscape:connector-curvature="0" />
      </g>
      <g
         id="g1377"
         style="">
        <path
           inkscape:connector-curvature="0"
           id="path1211"
           d="M 3.3333334e-8,277.94997 5.2916666,283.24164 3.3333334e-8,288.5333 -5.2916666,283.24164 Z"
           style="fill:#09a39d;fill-opacity:1;stroke:none;stroke-width:0.26458332px;stroke-linecap:butt;stroke-linejoin:miter;stroke-opacity:1" />
        <path
           inkscape:connector-curvature="0"
           id="path1213"
           d="m 52.916667,277.94997 5.291666,5.29167 -5.291666,5.29166 -5.291666,-5.29166 z"
           style="fill:#015b42;fill-opacity:1;stroke:none;stroke-width:0.26458332px;stroke-linecap:butt;stroke-linejoin:miter;stroke-opacity:1" />
        <path
           style="fill:#12c933;fill-opacity:1;stroke:none;stroke-width:0.26458332px;stroke-linecap:butt;stroke-linejoin:miter;stroke-opacity:1"
           d="m 42.333334,277.94997 5.291667,5.29167 -5.291668,5.29166 -5.291666,-5.29166 z"
           id="path1219"
           inkscape:connector-curvature="0" />
        <path
           inkscape:connector-curvature="0"
           id="path1225"
           d="m 31.750001,277.94997 5.291667,5.29167 -5.291667,5.29166 -5.291667,-5.29166 z"
           style="fill:#94d59b;fill-opacity:1;stroke:none;stroke-width:0.26458332px;stroke-linecap:butt;stroke-linejoin:miter;stroke-opacity:1" />
        <path
           inkscape:connector-curvature="0"
           id="path1229"
           d="m 21.166668,277.94997 5.291666,5.29167 -5.291666,5.29166 -5.291667,-5.29166 z"
           style="fill:#00c9b7;fill-opacity:1;stroke:none;stroke-width:0.26458332px;stroke-linecap:butt;stroke-linejoin:miter;stroke-opacity:1" />
        <path
           inkscape:connector-curvature="0"
           id="path1237"
           d="m 10.583334,277.94997 5.291667,5.29167 -5.291667,5.29166 -5.2916673,-5.29166 z"
           style="fill:#348600;fill-opacity:1;stroke:none;stroke-width:0.26458332px;stroke-linecap:butt;stroke-linejoin:miter;stroke-opacity:1" />
        <path
           inkscape:connector-curvature="0"
           id="path1249"
           d="m 63.5,277.94997 5.291667,5.29167 L 63.5,288.5333 58.208334,283.24164 Z"
           style="fill:#101a01;fill-opacity:1;stroke:none;stroke-width:0.26458332px;stroke-linecap:butt;stroke-linejoin:miter;stroke-opacity:1" />
        <path
           style="fill:#015b42;fill-opacity:1;stroke:none;stroke-width:0.26458332px;stroke-linecap:butt;stroke-linejoin:miter;stroke-opacity:1"
           d="m 74.083334,277.94997 5.291667,5.29167 -5.291667,5.29166 -5.291667,-5.29166 z"
           id="path1253"
           inkscape:connector-curvature="0" />
      </g>
      <g
         id="g1387"
         style="">
        <path
           style="fill:#01ef5b;fill-opacity:1;stroke:none;stroke-width:0.26458332px;stroke-linecap:butt;stroke-linejoin:miter;stroke-opacity:1"
           d="m 47.625001,283.24164 5.291667,5.29167 -5.291667,5.29166 -5.291668,-5.29166 z"
           id="path1215"
           inkscape:connector-curvature="0" />
        <path
           inkscape:connector-curvature="0"
           id="path1221"
           d="m 37.041667,283.24164 5.291666,5.29167 -5.291666,5.29166 -5.291666,-5.29166 z"
           style="fill:#00939b;fill-opacity:1;stroke:none;stroke-width:0.26458332px;stroke-linecap:butt;stroke-linejoin:miter;stroke-opacity:1" />
        <path
           style="fill:#efdb00;fill-opacity:1;stroke:none;stroke-width:0.26458332px;stroke-linecap:butt;stroke-linejoin:miter;stroke-opacity:1"
           d="m 15.875001,283.24164 5.291667,5.29167 -5.291667,5.29166 -5.291667,-5.29166 z"
           id="path1231"
           inkscape:connector-curvature="0" />
        <path
           inkscape:connector-curvature="0"
           id="path1233"
           d="m 5.2916667,283.24164 5.2916673,5.29167 -5.2916673,5.29166 L 1.3333333e-7,288.53331 Z"
           style="fill:#101a01;fill-opacity:1;stroke:none;stroke-width:0.26458332px;stroke-linecap:butt;stroke-linejoin:miter;stroke-opacity:1" />
        <path
           style="fill:#101a01;fill-opacity:1;stroke:none;stroke-width:0.26458332px;stroke-linecap:butt;stroke-linejoin:miter;stroke-opacity:1"
           d="m 26.458334,283.24164 5.291667,5.29167 -5.291667,5.29166 -5.291666,-5.29166 z"
           id="path1243"
           inkscape:connector-curvature="0" />
        <path
           inkscape:connector-curvature="0"
           id="path1245"
           d="m 58.208334,283.24164 5.291667,5.29167 -5.291668,5.29166 -5.291667,-5.29166 z"
           style="fill:#efdb00;fill-opacity:1;stroke:none;stroke-width:0.26458332px;stroke-linecap:butt;stroke-linejoin:miter;stroke-opacity:1" />
        <path
           inkscape:connector-curvature="0"
           id="path1247"
           d="m 68.791667,283.24165 5.291667,5.29167 -5.291668,5.29165 L 63.5,288.53332 Z"
           style="fill:#00aca8;fill-opacity:1;stroke:none;stroke-width:0.26458332px;stroke-linecap:butt;stroke-linejoin:miter;stroke-opacity:1" />
        <path
           inkscape:connector-curvature="0"
           id="path1255"
           d="M -5.2916662,283.24164 -1.6666667e-7,288.53331 -5.2916662,293.82497 -10.583333,288.53331 Z"
           style="fill:#015b42;fill-opacity:1;stroke:none;stroke-width:0.26458332px;stroke-linecap:butt;stroke-linejoin:miter;stroke-opacity:1" />
      </g>
      <g
         id="g1367"
         style="">
        <path
           style="fill:#afe901;fill-opacity:1;stroke:none;stroke-width:0.26458332px;stroke-linecap:butt;stroke-linejoin:miter;stroke-opacity:1"
           d="m 37.041667,272.65831 5.291666,5.29167 -5.291666,5.29165 -5.291666,-5.29165 z"
           id="path1223"
           inkscape:connector-curvature="0" />
        <path
           style="fill:#00aca8;fill-opacity:1;stroke:none;stroke-width:0.26458332px;stroke-linecap:butt;stroke-linejoin:miter;stroke-opacity:1"
           d="m 26.458334,272.65831 5.291667,5.29167 -5.291667,5.29165 -5.291666,-5.29165 z"
           id="path1227"
           inkscape:connector-curvature="0" />
        <path
           style="fill:#83e1e3;fill-opacity:1;stroke:none;stroke-width:0.26458332px;stroke-linecap:butt;stroke-linejoin:miter;stroke-opacity:1"
           d="m 15.875001,272.65831 5.291667,5.29167 -5.291667,5.29165 -5.291667,-5.29165 z"
           id="path1235"
           inkscape:connector-curvature="0" />
        <path
           style="fill:#84f8a3;fill-opacity:1;stroke:none;stroke-width:0.26458332px;stroke-linecap:butt;stroke-linejoin:miter;stroke-opacity:1"
           d="m 5.2916667,272.65831 5.2916673,5.29167 -5.2916673,5.29165 L 1.3333333e-7,277.94998 Z"
           id="path1239"
           inkscape:connector-curvature="0" />
        <path
           inkscape:connector-curvature="0"
           id="path1241"
           d="M -5.2916667,272.65831 3.3333333e-7,277.94998 -5.2916667,283.24163 -10.583334,277.94998 Z"
           style="fill:#83e1e3;fill-opacity:1;stroke:none;stroke-width:0.26458332px;stroke-linecap:butt;stroke-linejoin:miter;stroke-opacity:1" />
        <path
           style="fill:#348600;fill-opacity:1;stroke:none;stroke-width:0.26458332px;stroke-linecap:butt;stroke-linejoin:miter;stroke-opacity:1"
           d="m 68.791667,272.65831 5.291667,5.29167 -5.291667,5.29166 -5.291666,-5.29166 z"
           id="path1251"
           inkscape:connector-curvature="0" />
        <path
           inkscape:connector-curvature="0"
           id="path1271"
           d="m 58.208333,272.65832 5.291667,5.29167 -5.291667,5.29165 -5.291667,-5.29165 z"
           style="fill:#00f4c0;fill-opacity:1;stroke:none;stroke-width:0.26458332px;stroke-linecap:butt;stroke-linejoin:miter;stroke-opacity:1" />
        <path
           inkscape:connector-curvature="0"
           id="path1291"
           d="m 47.625001,272.65832 5.291666,5.29167 -5.291666,5.29165 -5.291668,-5.29165 z"
           style="fill:#007ea7;fill-opacity:1;stroke:none;stroke-width:0.26458332px;stroke-linecap:butt;stroke-linejoin:miter;stroke-opacity:1" />
      </g>
      <g
         id="g1407"
         style="">
        <path
           inkscape:connector-curvature="0"
           id="path1273"
           d="m 47.625,293.82499 5.291667,5.29167 -5.291667,5.29165 -5.291667,-5.29165 z"
           style="fill:#015b42;fill-opacity:1;stroke:none;stroke-width:0.26458332px;stroke-linecap:butt;stroke-linejoin:miter;stroke-opacity:1" />
        <path
           inkscape:connector-curvature="0"
           id="path1277"
           d="m 37.041667,293.82498 5.291666,5.29167 -5.291666,5.29165 -5.291666,-5.29165 z"
           style="fill:#afe901;fill-opacity:1;stroke:none;stroke-width:0.26458332px;stroke-linecap:butt;stroke-linejoin:miter;stroke-opacity:1" />
        <path
           inkscape:connector-curvature="0"
           id="path1279"
           d="m 26.458334,293.82498 5.291667,5.29167 -5.291667,5.29165 -5.291666,-5.29165 z"
           style="fill:#00aca8;fill-opacity:1;stroke:none;stroke-width:0.26458332px;stroke-linecap:butt;stroke-linejoin:miter;stroke-opacity:1" />
        <path
           inkscape:connector-curvature="0"
           id="path1281"
           d="m 15.875001,293.82498 5.291667,5.29167 -5.291667,5.29165 -5.291667,-5.29165 z"
           style="fill:#83e1e3;fill-opacity:1;stroke:none;stroke-width:0.26458332px;stroke-linecap:butt;stroke-linejoin:miter;stroke-opacity:1" />
        <path
           inkscape:connector-curvature="0"
           id="path1283"
           d="m 5.291667,293.82498 5.291667,5.29167 L 5.291667,304.4083 4.6666665e-7,299.11665 Z"
           style="fill:#84f8a3;fill-opacity:1;stroke:none;stroke-width:0.26458332px;stroke-linecap:butt;stroke-linejoin:miter;stroke-opacity:1" />
        <path
           style="fill:#83e1e3;fill-opacity:1;stroke:none;stroke-width:0.26458332px;stroke-linecap:butt;stroke-linejoin:miter;stroke-opacity:1"
           d="M -5.2916664,293.82498 6.6666665e-7,299.11665 -5.2916664,304.4083 -10.583334,299.11665 Z"
           id="path1285"
           inkscape:connector-curvature="0" />
        <path
           style="fill:#09a39d;fill-opacity:1;stroke:none;stroke-width:0.26458332px;stroke-linecap:butt;stroke-linejoin:miter;stroke-opacity:1"
           d="m 58.208333,293.82498 5.291667,5.29167 -5.291667,5.29166 -5.291666,-5.29166 z"
           id="path1293"
           inkscape:connector-curvature="0" />
        <path
           style="fill:#007ea7;fill-opacity:1;stroke:none;stroke-width:0.26458332px;stroke-linecap:butt;stroke-linejoin:miter;stroke-opacity:1"
           d="m 68.791668,293.82499 5.291666,5.29167 -5.291666,5.29165 L 63.5,299.11666 Z"
           id="path1295"
           inkscape:connector-curvature="0" />
      </g>
      <g
         id="g1397"
         style="">
        <path
           inkscape:connector-curvature="0"
           id="path1257"
           d="M 3.3333334e-8,288.53331 5.291667,293.82498 3.3333334e-8,299.11663 -5.291667,293.82498 Z"
           style="fill:#efdb00;fill-opacity:1;stroke:none;stroke-width:0.26458332px;stroke-linecap:butt;stroke-linejoin:miter;stroke-opacity:1" />
        <path
           inkscape:connector-curvature="0"
           id="path1259"
           d="m 10.583335,288.53331 5.291666,5.29167 -5.291666,5.29165 -5.2916682,-5.29165 z"
           style="fill:#007ea7;fill-opacity:1;stroke:none;stroke-width:0.26458332px;stroke-linecap:butt;stroke-linejoin:miter;stroke-opacity:1" />
        <path
           style="fill:#00c9b7;fill-opacity:1;stroke:none;stroke-width:0.26458332px;stroke-linecap:butt;stroke-linejoin:miter;stroke-opacity:1"
           d="m 21.166668,288.53331 5.291666,5.29167 -5.291666,5.29166 -5.291667,-5.29166 z"
           id="path1261"
           inkscape:connector-curvature="0" />
        <path
           style="fill:#348600;fill-opacity:1;stroke:none;stroke-width:0.26458332px;stroke-linecap:butt;stroke-linejoin:miter;stroke-opacity:1"
           d="m 31.750001,288.53331 5.291667,5.29167 -5.291667,5.29166 -5.291667,-5.29166 z"
           id="path1263"
           inkscape:connector-curvature="0" />
        <path
           inkscape:connector-curvature="0"
           id="path1265"
           d="m 42.333335,288.53331 5.291666,5.29167 -5.291666,5.29165 -5.291667,-5.29165 z"
           style="fill:#007ea7;fill-opacity:1;stroke:none;stroke-width:0.26458332px;stroke-linecap:butt;stroke-linejoin:miter;stroke-opacity:1" />
        <path
           style="fill:#00f4c0;fill-opacity:1;stroke:none;stroke-width:0.26458332px;stroke-linecap:butt;stroke-linejoin:miter;stroke-opacity:1"
           d="m 52.916667,288.53331 5.291667,5.29167 -5.291667,5.29165 -5.291667,-5.29165 z"
           id="path1267"
           inkscape:connector-curvature="0" />
        <path
           inkscape:connector-curvature="0"
           id="path1269"
           d="m 63.5,288.53331 5.291667,5.29167 -5.291667,5.29166 -5.291666,-5.29166 z"
           style="fill:#348600;fill-opacity:1;stroke:none;stroke-width:0.26458332px;stroke-linecap:butt;stroke-linejoin:miter;stroke-opacity:1" />
        <path
           inkscape:connector-curvature="0"
           id="path1297"
           d="m 74.083333,288.53332 5.291667,5.29167 -5.291667,5.29166 -5.291666,-5.29166 z"
           style="fill:#12c933;fill-opacity:1;stroke:none;stroke-width:0.26458332px;stroke-linecap:butt;stroke-linejoin:miter;stroke-opacity:1" />
      </g>
    </g>
    <path
       style="fill:#ffffff;stroke-width:0.12743691;stroke:none;filter:url(#filter1315)"
       d="M 106.33398 55 C 105.23025 55 104.26942 55.7856 104.04883 56.867188 C 104.01708 57.013455 104 57.174249 104 57.335938 L 104 96.476562 C 104 101.61785 108.18108 105.80078 113.32227 105.80078 L 149.66797 105.80078 C 150.95381 105.80078 152 104.75211 152 103.46484 L 152 57.335938 C 152 56.049197 150.95194 55 149.66406 55 L 106.33398 55 z M 105.44531 56.257812 C 105.20368 56.457712 105.03173 56.737056 104.9668 57.054688 C 104.94639 57.145774 104.9375 57.240315 104.9375 57.335938 C 104.9375 57.240693 104.94632 57.145396 104.96484 57.054688 C 105.02989 56.736602 105.20345 56.457731 105.44531 56.257812 z M 110.09375 59.427734 C 109.96703 59.554462 109.86396 59.705852 109.79297 59.873047 C 109.72197 60.040241 109.68359 60.223619 109.68359 60.416016 L 109.68359 95.646484 C 109.68356 95.641634 109.68164 95.637691 109.68164 95.632812 L 109.68164 60.416016 C 109.68164 60.223619 109.72197 60.040241 109.79297 59.873047 C 109.86396 59.705852 109.96702 59.554462 110.09375 59.427734 z M 111.63867 104.69141 C 111.91098 104.74753 112.18774 104.78958 112.46875 104.81836 C 112.74976 104.84714 113.03399 104.86328 113.32227 104.86328 C 112.7456 104.86328 112.18334 104.80366 111.63867 104.69141 z "
       transform="matrix(0.26458333,0,0,0.26458333,0,246.19998)"
       id="path1069" />
    <path
       id="path1319"
       transform="matrix(0.26458333,0,0,0.26458333,0,246.19998)"
       d="M 106.33398 55 C 105.23025 55 104.26942 55.7856 104.04883 56.867188 C 104.01708 57.013455 104 57.174249 104 57.335938 L 104 96.476562 C 104 101.61785 108.18108 105.80078 113.32227 105.80078 L 149.66797 105.80078 C 150.95381 105.80078 152 104.75211 152 103.46484 L 152 57.335938 C 152 56.049197 150.95194 55 149.66406 55 L 106.33398 55 z M 105.44531 56.257812 C 105.20368 56.457712 105.03173 56.737056 104.9668 57.054688 C 104.94639 57.145774 104.9375 57.240315 104.9375 57.335938 C 104.9375 57.240693 104.94632 57.145396 104.96484 57.054688 C 105.02989 56.736602 105.20345 56.457731 105.44531 56.257812 z M 110.09375 59.427734 C 109.96703 59.554462 109.86396 59.705852 109.79297 59.873047 C 109.72197 60.040241 109.68359 60.223619 109.68359 60.416016 L 109.68359 95.646484 C 109.68356 95.641634 109.68164 95.637691 109.68164 95.632812 L 109.68164 60.416016 C 109.68164 60.223619 109.72197 60.040241 109.79297 59.873047 C 109.86396 59.705852 109.96702 59.554462 110.09375 59.427734 z M 111.63867 104.69141 C 111.91098 104.74753 112.18774 104.78958 112.46875 104.81836 C 112.74976 104.84714 113.03399 104.86328 113.32227 104.86328 C 112.7456 104.86328 112.18334 104.80366 111.63867 104.69141 z "
       style="fill:#ffffff;stroke-width:0.12743691;stroke:none;filter:url(#filter1315)" />
    <path
       style="fill:#ffffff;stroke-width:0.12743691;stroke:none;filter:url(#filter1315)"
       d="M 106.33398 55 C 105.23025 55 104.26942 55.7856 104.04883 56.867188 C 104.01708 57.013455 104 57.174249 104 57.335938 L 104 96.476562 C 104 101.61785 108.18108 105.80078 113.32227 105.80078 L 149.66797 105.80078 C 150.95381 105.80078 152 104.75211 152 103.46484 L 152 57.335938 C 152 56.049197 150.95194 55 149.66406 55 L 106.33398 55 z M 105.44531 56.257812 C 105.20368 56.457712 105.03173 56.737056 104.9668 57.054688 C 104.94639 57.145774 104.9375 57.240315 104.9375 57.335938 C 104.9375 57.240693 104.94632 57.145396 104.96484 57.054688 C 105.02989 56.736602 105.20345 56.457731 105.44531 56.257812 z M 110.09375 59.427734 C 109.96703 59.554462 109.86396 59.705852 109.79297 59.873047 C 109.72197 60.040241 109.68359 60.223619 109.68359 60.416016 L 109.68359 95.646484 C 109.68356 95.641634 109.68164 95.637691 109.68164 95.632812 L 109.68164 60.416016 C 109.68164 60.223619 109.72197 60.040241 109.79297 59.873047 C 109.86396 59.705852 109.96702 59.554462 110.09375 59.427734 z M 111.63867 104.69141 C 111.91098 104.74753 112.18774 104.78958 112.46875 104.81836 C 112.74976 104.84714 113.03399 104.86328 113.32227 104.86328 C 112.7456 104.86328 112.18334 104.80366 111.63867 104.69141 z "
       transform="matrix(0.26458333,0,0,0.26458333,0,246.19998)"
       id="path1321" />
    <rect
       style="opacity:0.9;fill:#ffffff;fill-opacity:1;stroke:none;stroke-width:0.5;stroke-linecap:round;stroke-miterlimit:4;stroke-dasharray:none;stroke-opacity:1"
       id="rect1164"
       width="36.777084"
       height="3.4395776"
       x="0.26458332"
       y="246.46457"
       rx="0.52916133"
       ry="0.52916133" />
    <g
       id="g1067"
       transform="matrix(0.56378752,0,0,0.56378752,15.327119,114.50574)">
      <path
         id="path840"
         d="m 25.600229,279.98154 h 15.283812 c 0.360688,0 0.656367,-0.29538 0.656367,-0.65637 v -17.38359 c 0,-0.36117 -0.295619,-0.65637 -0.656367,-0.65637 h -15.9397 c -0.361107,0 -0.656308,0.2952 -0.656308,0.65637 v 16.72776 z"
         inkscape:connector-curvature="0"
         style="fill:#2e3436;stroke-width:0.05980565" />
      <path
         id="path850"
         d="m 43.707287,260.4956 c 0,-0.36069 -0.29562,-0.65631 -0.656367,-0.65631 H 22.716461 c -0.316372,0 -0.581311,0.22619 -0.642253,0.52432 -0.0095,0.0427 -0.01358,0.087 -0.01358,0.13199 v 18.36853 c 0,2.16424 1.770905,3.93605 3.935511,3.93605 H 43.05277 c 0.360688,0 0.654453,-0.29586 0.654453,-0.65637 V 260.4956 Z m -2.166938,18.82957 c 0,0.36093 -0.29562,0.65637 -0.656367,0.65637 H 25.791846 c -0.170804,0 -0.226902,-0.0343 -0.336287,-0.14402 l -1.050366,-1.0506 c -0.09587,-0.0959 -0.117578,-0.19772 -0.117578,-0.31799 v -16.52735 c 0,-0.36117 0.2952,-0.65637 0.656367,-0.65637 h 15.940059 c 0.360688,0 0.656367,0.2952 0.656367,0.65637 v 17.38359 z"
         inkscape:connector-curvature="0"
         style="fill:#6e6f72;stroke-width:0.05980565" />
      <path
         id="path852"
         d="m 43.707287,260.4956 c 0,-0.36069 -0.29562,-0.65631 -0.656367,-0.65631 H 22.716461 c -0.316372,0 -0.581311,0.22619 -0.642253,0.52432 -0.0095,0.0427 -0.01358,0.087 -0.01358,0.13199 v 18.36853 c 0,2.16424 1.770905,3.93605 3.935511,3.93605 H 43.05277 c 0.360688,0 0.654453,-0.29586 0.654453,-0.65637 V 260.4956 Z m -2.166938,18.82957 c 0,0.36093 -0.29562,0.65637 -0.656367,0.65637 H 25.791846 c -0.170804,0 -0.226902,-0.0343 -0.336287,-0.14402 l -1.050366,-1.0506 c -0.09587,-0.0959 -0.117578,-0.19772 -0.117578,-0.31799 v -16.52735 c 0,-0.36117 0.2952,-0.65637 0.656367,-0.65637 h 15.940059 c 0.360688,0 0.656367,0.2952 0.656367,0.65637 v 17.38359 z"
         inkscape:connector-curvature="0"
         style="fill:none;stroke:#424143;stroke-width:0.32399112" />
      <path
         id="path854"
         d="m 43.05092,259.83935 c 0.360688,0 0.656367,0.2958 0.656367,0.65631 v 21.64827 c 0,0.36069 -0.293766,0.65637 -0.654453,0.65637 H 25.996143 c -2.165025,0 -3.935511,-1.77211 -3.935511,-3.93605 V 260.4956 c 0,-0.0447 0.0045,-0.0893 0.0131,-0.13175 0.06106,-0.29855 0.32636,-0.52456 0.642732,-0.52456 H 43.05092 m 0,-0.43957 H 22.716461 c -0.517977,0 -0.96951,0.3684 -1.073033,0.87597 -0.01489,0.0687 -0.02261,0.14402 -0.02261,0.21991 v 18.36853 c 0,2.4128 1.962582,4.37586 4.375322,4.37586 h 17.056631 c 0.603439,0 1.094264,-0.49202 1.094264,-1.09612 V 260.4956 c 0,-0.60386 -0.491722,-1.09588 -1.096118,-1.09588"
         inkscape:connector-curvature="0"
         style="fill:#424143;stroke-width:0.05980565" />
      <polygon
         transform="matrix(0.05980565,0,0,0.05980565,21.620821,259.39972)"
         id="polygon856"
         points="221.247,357.061 188.34,379 155.434,357.061 "
         style="fill:#424143" />
    </g>
    <rect
       style="opacity:0.9;fill:#ffffff;fill-opacity:1;stroke:none;stroke-width:0.5;stroke-linecap:round;stroke-miterlimit:4;stroke-dasharray:none;stroke-opacity:1"
       id="rect1160"
       width="44.450001"
       height="12.7"
       x="11.641666"
       y="282.18332"
       rx="2.1166608"
       ry="2.1166608" />
    <rect
       style="opacity:0.9;fill:#ffffff;fill-opacity:1;stroke:none;stroke-width:0.5;stroke-linecap:round;stroke-miterlimit:4;stroke-dasharray:none;stroke-opacity:1"
       id="rect1162"
       width="14.287499"
       height="3.4395833"
       x="53.181248"
       y="246.46457"
       rx="0.52916092"
       ry="0.52916092" />
    <g
       id="g1173">
      <path
         sodipodi:nodetypes="sssssccss"
         inkscape:connector-curvature="0"
         id="rect1166"
         d="m 1.3229221,246.72914 h 1.8520723 c 0.1465822,0 0.2645888,0.11801 0.2645888,0.26459 v 2.38124 c 0,0.14658 -0.1180066,0.26459 -0.2645888,0.26459 l -1.5874944,0 -0.5291667,-0.52916 0,-2.11667 c 0,-0.14658 0.1180066,-0.26459 0.2645888,-0.26459 z"
         style="opacity:0.85;fill:#555753;fill-opacity:1;stroke:none;stroke-width:0.5;stroke-linecap:round;stroke-miterlimit:4;stroke-dasharray:none;stroke-opacity:1" />
      <rect
         ry="0.26458862"
         rx="0.26458862"
         y="246.99373"
         x="1.3229166"
         height="1.8520833"
         width="1.8520833"
         id="rect1169"
         style="opacity:0.85;fill:#babdb6;fill-opacity:1;stroke:none;stroke-width:0.5;stroke-linecap:round;stroke-miterlimit:4;stroke-dasharray:none;stroke-opacity:1" />
    </g>
  </g>
</svg>
