<?xml version="1.0" encoding="UTF-8" standalone="no"?>
<svg
   xmlns:dc="http://purl.org/dc/elements/1.1/"
   xmlns:cc="http://creativecommons.org/ns#"
   xmlns:rdf="http://www.w3.org/1999/02/22-rdf-syntax-ns#"
   xmlns:svg="http://www.w3.org/2000/svg"
   xmlns="http://www.w3.org/2000/svg"
   xmlns:xlink="http://www.w3.org/1999/xlink"
   xmlns:sodipodi="http://sodipodi.sourceforge.net/DTD/sodipodi-0.dtd"
   xmlns:inkscape="http://www.inkscape.org/namespaces/inkscape"
   id="svg8"
   version="1.1"
   viewBox="0 0 8.4666664 8.4666667"
   height="32"
   width="32"
   sodipodi:docname="nds.svg"
   inkscape:version="0.92.2 (unknown)">
  <sodipodi:namedview
     pagecolor="#ffffff"
     bordercolor="#666666"
     borderopacity="1"
     objecttolerance="10"
     gridtolerance="10"
     guidetolerance="10"
     inkscape:pageopacity="0"
     inkscape:pageshadow="2"
     inkscape:window-width="1920"
     inkscape:window-height="1020"
     id="namedview47"
     showgrid="true"
     inkscape:zoom="22.47619"
     inkscape:cx="16.705843"
     inkscape:cy="11.865495"
     inkscape:window-x="0"
     inkscape:window-y="28"
     inkscape:window-maximized="1"
     inkscape:current-layer="svg8">
    <inkscape:grid
       type="xygrid"
       id="grid854"
       empspacing="4" />
  </sodipodi:namedview>
  <defs
     id="defs2">
    <linearGradient
       inkscape:collect="always"
       id="linearGradient4806">
      <stop
         style="stop-color:#33bfff;stop-opacity:1"
         offset="0"
         id="stop4802" />
      <stop
         style="stop-color:#005284;stop-opacity:1"
         offset="1"
         id="stop4804" />
    </linearGradient>
    <linearGradient
       id="linearGradient967">
      <stop
         style="stop-color:#d3d7cf;stop-opacity:1"
         offset="0"
         id="stop963" />
      <stop
         style="stop-color:#ffffff;stop-opacity:1"
         offset="1"
         id="stop965" />
    </linearGradient>
    <clipPath
       clipPathUnits="userSpaceOnUse"
       id="clipPath849">
      <rect
         style="opacity:0.21799999;fill:#0000ff;stroke-width:0.26458332"
         id="rect851"
         width="67.73333"
         height="50.799999"
         x="0"
         y="246.19998" />
    </clipPath>
    <clipPath
       clipPathUnits="userSpaceOnUse"
       id="clipPath1369">
      <rect
         ry="1.8520776"
         rx="1.8520776"
         y="385.37082"
         x="0.79374999"
         height="13.49375"
         width="15.08125"
         id="rect1371"
         style="opacity:1;fill:#ffffff;fill-opacity:1;stroke:none;stroke-width:0.5;stroke-miterlimit:4;stroke-dasharray:none" />
    </clipPath>
    <clipPath
       clipPathUnits="userSpaceOnUse"
       id="clipPath1517">
      <rect
         style="opacity:1;fill:#007ea7;fill-opacity:1;stroke:none;stroke-width:0.48038447;stroke-linecap:round;stroke-miterlimit:4;stroke-dasharray:none;stroke-opacity:1"
         id="rect1519"
         width="67.73333"
         height="50.799999"
         x="-7.5199102e-15"
         y="171.55629" />
    </clipPath>
    <clipPath
       clipPathUnits="userSpaceOnUse"
       id="clipPath949">
      <rect
         style="opacity:0.21799999;fill:#0000ff;stroke-width:0.26458332"
         id="rect951"
         width="67.73333"
         height="50.799999"
         x="-2.1166673"
         y="246.19998" />
    </clipPath>
    <linearGradient
       xlink:href="#linearGradient967"
       id="linearGradient1023"
       x1="5.2916665"
       y1="296.73538"
       x2="5.2916665"
       y2="292.76663"
       gradientUnits="userSpaceOnUse"
       gradientTransform="translate(0,-288.53331)" />
    <linearGradient
       xlink:href="#linearGradient967"
       id="linearGradient1031"
       x1="5.2916665"
       y1="287.47498"
       x2="5.2916665"
       y2="296.99997"
       gradientUnits="userSpaceOnUse"
       gradientTransform="translate(0,-288.53331)" />
    <radialGradient
       inkscape:collect="always"
       xlink:href="#linearGradient4806"
       id="radialGradient4810"
       gradientUnits="userSpaceOnUse"
       gradientTransform="matrix(1.3636364,0,0,1.4876034,-1.5393941,-1.5503273)"
       cx="4.2333331"
       cy="2.998611"
       fx="4.2333331"
       fy="2.998611"
       r="2.9104166" />
  </defs>
  <metadata
     id="metadata5">
    <rdf:RDF>
      <cc:Work
         rdf:about="">
        <dc:format>image/svg+xml</dc:format>
        <dc:type
           rdf:resource="http://purl.org/dc/dcmitype/StillImage" />
        <dc:title />
      </cc:Work>
    </rdf:RDF>
  </metadata>
  <rect
     style="opacity:1;fill:#00ff00;fill-opacity:1;stroke:none;stroke-width:2;stroke-linecap:round;stroke-linejoin:round;stroke-miterlimit:4;stroke-dasharray:none;stroke-dashoffset:0;stroke-opacity:1"
     id="rect4614"
     width="8.4666662"
     height="8.4666662"
     x="0"
     y="0" />
  <path
     style="opacity:1;fill:#888a85;fill-opacity:1;stroke:none;stroke-width:7.55905533;stroke-linecap:round;stroke-linejoin:round;stroke-miterlimit:4;stroke-dasharray:none;stroke-dashoffset:0;stroke-opacity:1"
     d="M 1 0 L 1 27 L 2 27 L 2 29 L 3 29 L 3 30 L 4 30 L 4 31 L 6 31 L 6 32 L 31 32 L 31 31 L 31 30 L 31 29 L 31 27 L 31 26 L 31 21 L 31 0 L 1 0 z "
     transform="scale(0.26458333)"
     id="rect4775" />
  <path
     style="opacity:1;fill:#555753;fill-opacity:1;stroke:none;stroke-width:2;stroke-linecap:round;stroke-linejoin:round;stroke-miterlimit:4;stroke-dasharray:none;stroke-dashoffset:0;stroke-opacity:1"
     d="m 1.3229166,0.52916664 h 5.8208332 c 0.1465792,0 0.2645834,0.11800417 0.2645834,0.26458335 V 7.1437499 c 0,0.1465792 -0.1180042,0.2645833 -0.2645834,0.2645833 l -5.5562498,0 -0.5291667,-0.5291666 0,-6.08541661 c 0,-0.14657918 0.1180042,-0.26458335 0.2645833,-0.26458335 z"
     id="rect4700"
     inkscape:connector-curvature="0"
     sodipodi:nodetypes="sssssccss" />
  <path
     style="opacity:1;fill:url(#radialGradient4810);fill-opacity:1;stroke:none;stroke-width:2;stroke-linecap:round;stroke-linejoin:round;stroke-miterlimit:4;stroke-dasharray:none;stroke-dashoffset:0;stroke-opacity:1"
     d="m 1.5874999,0.79374999 h 5.2916666 c 0.1465792,0 0.2645833,0.11800416 0.2645833,0.26458331 v 5.8208333 c 0,0.1465791 -0.1180041,0.2645833 -0.2645833,0.2645833 l -5.0270832,0 -0.5291667,-0.5291667 0,-5.5562499 c 0,-0.14657915 0.1180042,-0.26458331 0.2645833,-0.26458331 z"
     id="rect4703"
     inkscape:connector-curvature="0"
     sodipodi:nodetypes="sssssccss" />
  <path
     style="opacity:1;fill:#555753;fill-opacity:1;stroke:none;stroke-width:7.55905533;stroke-linecap:round;stroke-linejoin:round;stroke-miterlimit:4;stroke-dasharray:none;stroke-dashoffset:0;stroke-opacity:1"
     d="M 1 0 L 1 1 L 1 27 L 2 27 L 2 1 L 30 1 L 30 31 L 6 31 L 6 32 L 30 32 L 31 32 L 31 31 L 31 1 L 31 0 L 30 0 L 2 0 L 1 0 z M 6 31 L 6 30 L 4 30 L 4 31 L 6 31 z M 4 30 L 4 29 L 3 29 L 3 30 L 4 30 z M 3 29 L 3 27 L 2 27 L 2 29 L 3 29 z "
     transform="scale(0.26458333)"
     id="rect4676" />
  <path
     style="opacity:1;fill:#ffffff;fill-opacity:1;stroke:none;stroke-width:7.55905533;stroke-linecap:round;stroke-linejoin:round;stroke-miterlimit:4;stroke-dasharray:none;stroke-dashoffset:0;stroke-opacity:1"
     d="M 6 3 C 5.446 3 5 3.446 5 4 L 5 7 L 27 7 L 27 4 C 27 3.446 26.554 3 26 3 L 6 3 z "
     transform="scale(0.26458333)"
     id="rect4705" />
  <path
     style="opacity:1;fill:#ffffff;fill-opacity:1;stroke:none;stroke-width:6.01382065;stroke-linecap:round;stroke-linejoin:round;stroke-miterlimit:4;stroke-dasharray:none;stroke-dashoffset:0;stroke-opacity:1"
     d="M 5 24 L 5 25 L 7 27 L 26 27 C 26.554 27 27 26.554 27 26 L 27 24 L 5 24 z "
     transform="scale(0.26458333)"
     id="rect4707" />
  <rect
     style="opacity:1;fill:#555753;fill-opacity:1;stroke:none;stroke-width:2;stroke-linecap:round;stroke-linejoin:round;stroke-miterlimit:4;stroke-dasharray:none;stroke-dashoffset:0;stroke-opacity:1"
     id="rect4812"
     width="1.0583333"
     height="0.26458332"
     x="3.7041667"
     y="7.6729164" />
</svg>
