<?xml version="1.0" encoding="UTF-8" standalone="no"?>
<svg
   xmlns:dc="http://purl.org/dc/elements/1.1/"
   xmlns:cc="http://creativecommons.org/ns#"
   xmlns:rdf="http://www.w3.org/1999/02/22-rdf-syntax-ns#"
   xmlns:svg="http://www.w3.org/2000/svg"
   xmlns="http://www.w3.org/2000/svg"
   xmlns:xlink="http://www.w3.org/1999/xlink"
   xmlns:sodipodi="http://sodipodi.sourceforge.net/DTD/sodipodi-0.dtd"
   xmlns:inkscape="http://www.inkscape.org/namespaces/inkscape"
   id="svg8"
   version="1.1"
   viewBox="0 0 10.583333 11.1125"
   height="42"
   width="40"
   sodipodi:docname="gb.svg"
   inkscape:version="0.92.2 (unknown)"
   inkscape:export-filename="/home/georg/Partition E/Software/Videospiele/Nintendo/Nintendo DS/NDS Software/nds_flashcard_theme_opends/src/supercard_dstwo/plugin_menu/PNG/gb.png"
   inkscape:export-xdpi="96"
   inkscape:export-ydpi="96">
  <sodipodi:namedview
     pagecolor="#ffffff"
     bordercolor="#666666"
     borderopacity="1"
     objecttolerance="10"
     gridtolerance="10"
     guidetolerance="10"
     inkscape:pageopacity="0"
     inkscape:pageshadow="2"
     inkscape:window-width="1920"
     inkscape:window-height="1020"
     id="namedview47"
     showgrid="true"
     inkscape:snap-bbox="true"
     inkscape:object-paths="true"
     inkscape:bbox-nodes="true"
     inkscape:snap-global="true"
     inkscape:snap-others="true"
     inkscape:measure-start="0,0"
     inkscape:measure-end="0,0"
     inkscape:snap-bbox-midpoints="true"
     inkscape:bbox-paths="true"
     inkscape:snap-bbox-edge-midpoints="true"
     inkscape:snap-to-guides="false"
     inkscape:snap-intersection-paths="true"
     inkscape:snap-nodes="true"
     inkscape:object-nodes="true"
     inkscape:snap-smooth-nodes="true"
     inkscape:zoom="8"
     inkscape:cx="-3.2002698"
     inkscape:cy="31.778311"
     inkscape:window-x="0"
     inkscape:window-y="28"
     inkscape:window-maximized="1"
     inkscape:current-layer="svg8">
    <inkscape:grid
       type="xygrid"
       id="grid854"
       empspacing="4" />
  </sodipodi:namedview>
  <defs
     id="defs2">
    <linearGradient
       id="linearGradient967">
      <stop
         style="stop-color:#d3d7cf;stop-opacity:1"
         offset="0"
         id="stop963" />
      <stop
         style="stop-color:#ffffff;stop-opacity:1"
         offset="1"
         id="stop965" />
    </linearGradient>
    <clipPath
       clipPathUnits="userSpaceOnUse"
       id="clipPath849">
      <rect
         style="opacity:0.21799999;fill:#0000ff;stroke-width:0.26458332"
         id="rect851"
         width="67.73333"
         height="50.799999"
         x="0"
         y="246.19998" />
    </clipPath>
    <clipPath
       clipPathUnits="userSpaceOnUse"
       id="clipPath1369">
      <rect
         ry="1.8520776"
         rx="1.8520776"
         y="385.37082"
         x="0.79374999"
         height="13.49375"
         width="15.08125"
         id="rect1371"
         style="opacity:1;fill:#ffffff;fill-opacity:1;stroke:none;stroke-width:0.5;stroke-miterlimit:4;stroke-dasharray:none" />
    </clipPath>
    <clipPath
       clipPathUnits="userSpaceOnUse"
       id="clipPath1517">
      <rect
         style="opacity:1;fill:#007ea7;fill-opacity:1;stroke:none;stroke-width:0.48038447;stroke-linecap:round;stroke-miterlimit:4;stroke-dasharray:none;stroke-opacity:1"
         id="rect1519"
         width="67.73333"
         height="50.799999"
         x="-7.5199102e-15"
         y="171.55629" />
    </clipPath>
    <clipPath
       clipPathUnits="userSpaceOnUse"
       id="clipPath949">
      <rect
         style="opacity:0.21799999;fill:#0000ff;stroke-width:0.26458332"
         id="rect951"
         width="67.73333"
         height="50.799999"
         x="-2.1166673"
         y="246.19998" />
    </clipPath>
    <linearGradient
       xlink:href="#linearGradient967"
       id="linearGradient1023"
       x1="5.2916665"
       y1="296.73538"
       x2="5.2916665"
       y2="292.76663"
       gradientUnits="userSpaceOnUse"
       gradientTransform="translate(0,-285.88748)" />
    <linearGradient
       xlink:href="#linearGradient967"
       id="linearGradient1031"
       x1="5.2916665"
       y1="287.47498"
       x2="5.2916665"
       y2="296.99997"
       gradientUnits="userSpaceOnUse"
       gradientTransform="translate(0,-285.88748)" />
    <linearGradient
       inkscape:collect="always"
       xlink:href="#linearGradient967"
       id="linearGradient998"
       x1="20"
       y1="7"
       x2="20"
       y2="43"
       gradientUnits="userSpaceOnUse" />
    <linearGradient
       inkscape:collect="always"
       xlink:href="#linearGradient967"
       id="linearGradient1006"
       x1="20"
       y1="7"
       x2="20"
       y2="43"
       gradientUnits="userSpaceOnUse" />
  </defs>
  <metadata
     id="metadata5">
    <rdf:RDF>
      <cc:Work
         rdf:about="">
        <dc:format>image/svg+xml</dc:format>
        <dc:type
           rdf:resource="http://purl.org/dc/dcmitype/StillImage" />
        <dc:title></dc:title>
      </cc:Work>
    </rdf:RDF>
  </metadata>
  <rect
     ry="0"
     rx="0"
     y="1.6894531e-06"
     x="0"
     height="10.318749"
     width="10.583333"
     id="rect1009"
     style="opacity:1;fill:#d3d7cf;fill-opacity:1;stroke:none;stroke-width:0.18708867;stroke-linecap:round;stroke-miterlimit:4;stroke-dasharray:none;stroke-opacity:1" />
  <path
     inkscape:connector-curvature="0"
     id="rect1011"
     d="m 1.0583194,0.79376 c 0,0 8.4666942,0 8.4666942,0 0.5863094,0 1.0583194,0.47201 1.0583194,1.05832 0,0 0,8.99584 0,8.99584 0,0 -10.583333,0 -10.583333,0 0,0 0,-8.99584 0,-8.99584 0,-0.58631 0.47201047,-1.05832 1.0583194,-1.05832 0,0 0,0 0,0"
     style="opacity:1;fill:url(#linearGradient1023);fill-opacity:1;stroke:none;stroke-width:0.18708867;stroke-linecap:round;stroke-miterlimit:4;stroke-dasharray:none;stroke-opacity:1" />
  <path
     style="opacity:1;fill:url(#linearGradient998);fill-opacity:1;stroke:url(#linearGradient1006);stroke-width:3.99999999;stroke-linecap:round;stroke-linejoin:round;stroke-miterlimit:4;stroke-dasharray:none;stroke-dashoffset:0;stroke-opacity:1"
     d="M 11.933594 8 C 11.415979 8 11 8.4159793 11 8.9335938 L 11 20.066406 L 11 35.066406 C 11 35.584021 11.415979 36 11.933594 36 L 17.527344 36 L 20.066406 36 L 25 36 C 27.216 36 29 34.216 29 32 L 29 20.066406 L 29 20 L 29 8.9335938 C 29 8.4159793 28.584021 8 28.066406 8 L 11.933594 8 z "
     id="path990"
     transform="scale(0.26458333)" />
  <path
     id="path954"
     d="M 11.933594 8 C 11.415979 8 11 8.4159793 11 8.9335938 L 11 20.066406 L 11 35.066406 C 11 35.584021 11.415979 36 11.933594 36 L 17.527344 36 L 20.066406 36 L 25 36 C 27.216 36 29 34.216 29 32 L 29 20.066406 L 29 20 L 29 8.9335938 C 29 8.4159793 28.584021 8 28.066406 8 L 11.933594 8 z "
     style="opacity:1;fill:#d3d3d3;fill-opacity:1;stroke:#888a85;stroke-width:1.99999999;stroke-linecap:round;stroke-linejoin:round;stroke-miterlimit:4;stroke-dasharray:none;stroke-dashoffset:0;stroke-opacity:1"
     transform="scale(0.26458333)" />
  <rect
     ry="0"
     rx="0"
     y="10.847902"
     x="1.8799776e-15"
     height="0.26458332"
     width="10.583333"
     id="rect1033"
     style="opacity:1;fill:#00ff00;fill-opacity:1;stroke:none;stroke-width:0.18708867;stroke-linecap:round;stroke-miterlimit:4;stroke-dasharray:none;stroke-opacity:1" />
  <path
     inkscape:connector-curvature="0"
     id="rect1045"
     d="m 0,10.31875 c 0,0 0,0.26458 0,0.26458 0,0 0,0.26459 0,0.26459 0,0 0,0.26458 0,0.26458 0,0 0.52916666,0 0.52916666,0 0,0 0,-0.52917 0,-0.52917 0,0 -0.26458333,0 -0.26458333,0 0,0 0,-0.26458 0,-0.26458 0,0 -0.26458333,0 -0.26458333,0 0,0 0,0 0,0"
     style="opacity:1;fill:#00ff00;fill-opacity:1;stroke:none;stroke-width:0.18708867;stroke-linecap:round;stroke-miterlimit:4;stroke-dasharray:none;stroke-opacity:1" />
  <path
     inkscape:connector-curvature="0"
     style="opacity:1;fill:#00ff00;fill-opacity:1;stroke:none;stroke-width:0.18708867;stroke-linecap:round;stroke-miterlimit:4;stroke-dasharray:none;stroke-opacity:1"
     d="m 10.583333,10.31876 c 0,0 0,0.26458 0,0.26458 0,0 0,0.26458 0,0.26458 0,0 0,0.26458 0,0.26458 0,0 -0.529166,0 -0.529166,0 0,0 0,-0.52916 0,-0.52916 0,0 0.264583,0 0.264583,0 0,0 0,-0.26458 0,-0.26458 0,0 0.264583,0 0.264583,0"
     id="path1050" />
  <rect
     y="1.6894531e-06"
     x="0"
     height="0.26458332"
     width="0.52916664"
     id="rect1053"
     style="opacity:1;fill:#00ff00;fill-opacity:1;stroke:none;stroke-width:0.18708867;stroke-linecap:round;stroke-miterlimit:4;stroke-dasharray:none;stroke-opacity:1" />
  <rect
     y="1.6894531e-06"
     x="0"
     height="0.52916664"
     width="0.26458332"
     id="rect1055"
     style="opacity:1;fill:#00ff00;fill-opacity:1;stroke:none;stroke-width:0.18708867;stroke-linecap:round;stroke-miterlimit:4;stroke-dasharray:none;stroke-opacity:1" />
  <rect
     y="1.6894531e-06"
     x="10.054167"
     height="0.26458332"
     width="0.52916664"
     id="rect1057"
     style="opacity:1;fill:#00ff00;fill-opacity:1;stroke:none;stroke-width:0.18708867;stroke-linecap:round;stroke-miterlimit:4;stroke-dasharray:none;stroke-opacity:1" />
  <rect
     y="1.6894531e-06"
     x="10.318749"
     height="0.52916664"
     width="0.26458332"
     id="rect1059"
     style="opacity:1;fill:#00ff00;fill-opacity:1;stroke:none;stroke-width:0.18708867;stroke-linecap:round;stroke-miterlimit:4;stroke-dasharray:none;stroke-opacity:1" />
  <g
     id="g966">
    <path
       id="rect918"
       transform="scale(0.26458333)"
       d="M 11.933594 8 C 11.415979 8 11 8.4159793 11 8.9335938 L 11 20.066406 L 11 35.066406 C 11 35.584021 11.415979 36 11.933594 36 L 17.527344 36 L 20.066406 36 L 25 36 C 27.216 36 29 34.216 29 32 L 29 20.066406 L 29 20 L 29 8.9335938 C 29 8.4159793 28.584021 8 28.066406 8 L 11.933594 8 z "
       style="opacity:1;fill:#d3d3d3;fill-opacity:1;stroke:none;stroke-width:7.99999952;stroke-linecap:round;stroke-linejoin:round;stroke-miterlimit:4;stroke-dasharray:none;stroke-dashoffset:0;stroke-opacity:1" />
    <path
       sodipodi:nodetypes="ssssccssccsscs"
       inkscape:connector-curvature="0"
       id="rect927"
       transform="scale(0.26458333)"
       d="m 13,10 c -0.554,0 -1,0.446 -1,1 v 9 c 0,0.554 0.446,1 1,1 l 4,0 h 5 l 4,0 c 1.108,0 2.045746,-0.892945 2,-2 V 17 14.564453 11 C 28,10.446 27.554,9.9999999 27,9.9999999 L 22,10 Z"
       style="opacity:1;fill:#555753;fill-opacity:1;stroke:none;stroke-width:7.99999952;stroke-linecap:round;stroke-linejoin:round;stroke-miterlimit:4;stroke-dasharray:none;stroke-dashoffset:0;stroke-opacity:1" />
    <rect
       ry="0"
       rx="0"
       y="2.9104166"
       x="3.96875"
       height="2.3812499"
       width="2.6458333"
       id="rect936"
       style="opacity:1;fill:#687906;fill-opacity:1;stroke:none;stroke-width:2.11666656;stroke-linecap:round;stroke-linejoin:round;stroke-miterlimit:4;stroke-dasharray:none;stroke-dashoffset:0;stroke-opacity:1" />
    <circle
       style="opacity:1;fill:#888a85;fill-opacity:1;stroke:none;stroke-width:0.22681822;stroke-linecap:round;stroke-miterlimit:4;stroke-dasharray:none;stroke-opacity:1"
       id="path929"
       cx="7.0076609"
       cy="7.0066509"
       r="0.32076937" />
    <circle
       r="0.32076937"
       cy="7.2730145"
       cx="6.2272987"
       id="circle910"
       style="opacity:1;fill:#888a85;fill-opacity:1;stroke:none;stroke-width:0.22681822;stroke-linecap:round;stroke-miterlimit:4;stroke-dasharray:none;stroke-opacity:1" />
    <rect
       y="6.614583"
       x="3.7041667"
       height="1.3229166"
       width="0.52916664"
       id="rect914"
       style="opacity:1;fill:#555753;fill-opacity:1;stroke:none;stroke-width:2.11666656;stroke-linecap:round;stroke-linejoin:round;stroke-miterlimit:4;stroke-dasharray:none;stroke-dashoffset:0;stroke-opacity:1" />
    <rect
       transform="rotate(90)"
       style="opacity:1;fill:#555753;fill-opacity:1;stroke:none;stroke-width:2.11666656;stroke-linecap:round;stroke-linejoin:round;stroke-miterlimit:4;stroke-dasharray:none;stroke-dashoffset:0;stroke-opacity:1"
       id="rect916"
       width="0.52916664"
       height="1.3229166"
       x="7.0114579"
       y="-4.6302085" />
    <circle
       r="0.13229166"
       cy="3.5718749"
       cx="3.5718749"
       id="path934"
       style="opacity:1;fill:#cc0000;fill-opacity:1;stroke:none;stroke-width:2.11666656;stroke-linecap:round;stroke-linejoin:round;stroke-miterlimit:4;stroke-dasharray:none;stroke-dashoffset:0;stroke-opacity:1" />
    <rect
       y="8.4666662"
       x="4.1985002"
       height="0.26458329"
       width="0.8285833"
       id="rect948"
       style="opacity:1;fill:#555753;fill-opacity:1;stroke:none;stroke-width:2.11666656;stroke-linecap:round;stroke-linejoin:round;stroke-miterlimit:4;stroke-dasharray:none;stroke-dashoffset:0;stroke-opacity:1" />
    <rect
       y="8.4666662"
       x="5.2916665"
       height="0.26458365"
       width="0.79375005"
       id="rect950"
       style="opacity:1;fill:#555753;fill-opacity:1;stroke:none;stroke-width:2.11666656;stroke-linecap:round;stroke-linejoin:round;stroke-miterlimit:4;stroke-dasharray:none;stroke-dashoffset:0;stroke-opacity:1" />
  </g>
</svg>
