<?xml version="1.0" encoding="UTF-8" standalone="no"?>
<svg
   xmlns:dc="http://purl.org/dc/elements/1.1/"
   xmlns:cc="http://creativecommons.org/ns#"
   xmlns:rdf="http://www.w3.org/1999/02/22-rdf-syntax-ns#"
   xmlns:svg="http://www.w3.org/2000/svg"
   xmlns="http://www.w3.org/2000/svg"
   xmlns:xlink="http://www.w3.org/1999/xlink"
   xmlns:sodipodi="http://sodipodi.sourceforge.net/DTD/sodipodi-0.dtd"
   xmlns:inkscape="http://www.inkscape.org/namespaces/inkscape"
   id="svg8"
   version="1.1"
   viewBox="0 0 10.583333 11.1125"
   height="42"
   width="40"
   sodipodi:docname="gba.svg"
   inkscape:version="0.92.2 (unknown)"
   inkscape:export-filename="/home/georg/Partition E/Software/Videospiele/Nintendo/Nintendo DS/NDS Software/nds_flashcard_theme_opends/src/supercard_dstwo/plugin_menu/PNG/gba.png"
   inkscape:export-xdpi="96"
   inkscape:export-ydpi="96">
  <sodipodi:namedview
     pagecolor="#ffffff"
     bordercolor="#666666"
     borderopacity="1"
     objecttolerance="10"
     gridtolerance="10"
     guidetolerance="10"
     inkscape:pageopacity="0"
     inkscape:pageshadow="2"
     inkscape:window-width="1920"
     inkscape:window-height="1020"
     id="namedview47"
     showgrid="true"
     inkscape:snap-bbox="true"
     inkscape:object-paths="true"
     inkscape:bbox-nodes="true"
     inkscape:snap-global="true"
     inkscape:snap-others="true"
     inkscape:measure-start="0,0"
     inkscape:measure-end="0,0"
     inkscape:snap-bbox-midpoints="true"
     inkscape:bbox-paths="true"
     inkscape:snap-bbox-edge-midpoints="true"
     inkscape:snap-to-guides="false"
     inkscape:snap-intersection-paths="true"
     inkscape:snap-nodes="true"
     inkscape:object-nodes="true"
     inkscape:snap-smooth-nodes="true"
     inkscape:zoom="5.6568543"
     inkscape:cx="8.9693259"
     inkscape:cy="4.480254"
     inkscape:window-x="0"
     inkscape:window-y="28"
     inkscape:window-maximized="1"
     inkscape:current-layer="svg8">
    <inkscape:grid
       type="xygrid"
       id="grid854"
       empspacing="4" />
  </sodipodi:namedview>
  <defs
     id="defs2">
    <linearGradient
       inkscape:collect="always"
       id="linearGradient1668-3">
      <stop
         style="stop-color:#cc0000;stop-opacity:1"
         offset="0"
         id="stop1664" />
      <stop
         id="stop1677"
         offset="0.24284728"
         style="stop-color:#f57900;stop-opacity:1" />
      <stop
         style="stop-color:#fce94f;stop-opacity:1"
         offset="0.48569456"
         id="stop1679" />
      <stop
         id="stop1681"
         offset="0.78103024"
         style="stop-color:#73d216;stop-opacity:1" />
      <stop
         style="stop-color:#4e9a06;stop-opacity:1"
         offset="0.87521464"
         id="stop1683" />
      <stop
         style="stop-color:#4e9a06;stop-opacity:1"
         offset="1"
         id="stop1666" />
    </linearGradient>
    <linearGradient
       inkscape:collect="always"
       id="linearGradient1613">
      <stop
         style="stop-color:#084ba2;stop-opacity:1"
         offset="0"
         id="stop1609" />
      <stop
         style="stop-color:#4bc0c7;stop-opacity:1"
         offset="1"
         id="stop1611" />
    </linearGradient>
    <linearGradient
       id="linearGradient967">
      <stop
         style="stop-color:#d3d7cf;stop-opacity:1"
         offset="0"
         id="stop963" />
      <stop
         style="stop-color:#ffffff;stop-opacity:1"
         offset="1"
         id="stop965" />
    </linearGradient>
    <clipPath
       clipPathUnits="userSpaceOnUse"
       id="clipPath849">
      <rect
         style="opacity:0.21799999;fill:#0000ff;stroke-width:0.26458332"
         id="rect851"
         width="67.73333"
         height="50.799999"
         x="0"
         y="246.19998" />
    </clipPath>
    <clipPath
       clipPathUnits="userSpaceOnUse"
       id="clipPath1369">
      <rect
         ry="1.8520776"
         rx="1.8520776"
         y="385.37082"
         x="0.79374999"
         height="13.49375"
         width="15.08125"
         id="rect1371"
         style="opacity:1;fill:#ffffff;fill-opacity:1;stroke:none;stroke-width:0.5;stroke-miterlimit:4;stroke-dasharray:none" />
    </clipPath>
    <clipPath
       clipPathUnits="userSpaceOnUse"
       id="clipPath1517">
      <rect
         style="opacity:1;fill:#007ea7;fill-opacity:1;stroke:none;stroke-width:0.48038447;stroke-linecap:round;stroke-miterlimit:4;stroke-dasharray:none;stroke-opacity:1"
         id="rect1519"
         width="67.73333"
         height="50.799999"
         x="-7.5199102e-15"
         y="171.55629" />
    </clipPath>
    <clipPath
       clipPathUnits="userSpaceOnUse"
       id="clipPath949">
      <rect
         style="opacity:0.21799999;fill:#0000ff;stroke-width:0.26458332"
         id="rect951"
         width="67.73333"
         height="50.799999"
         x="-2.1166673"
         y="246.19998" />
    </clipPath>
    <linearGradient
       xlink:href="#linearGradient967"
       id="linearGradient1023"
       x1="5.2916665"
       y1="296.73538"
       x2="5.2916665"
       y2="292.76663"
       gradientUnits="userSpaceOnUse"
       gradientTransform="translate(0,-285.88748)" />
    <linearGradient
       xlink:href="#linearGradient967"
       id="linearGradient1031"
       x1="5.2916665"
       y1="287.47498"
       x2="5.2916665"
       y2="296.99997"
       gradientUnits="userSpaceOnUse"
       gradientTransform="translate(0,-285.88748)" />
    <clipPath
       clipPathUnits="userSpaceOnUse"
       id="clipPath1051">
      <rect
         style="opacity:1;fill:#d3d3d3;fill-opacity:1;stroke:none;stroke-width:1.05833328;stroke-linecap:round;stroke-linejoin:round;stroke-miterlimit:4;stroke-dasharray:none;stroke-dashoffset:0;stroke-opacity:1"
         id="rect1054"
         width="44.714584"
         height="55.959373"
         x="-13.626041"
         y="-20.902082"
         rx="2.9104171"
         ry="2.9104171"
         transform="rotate(-0.49069036)" />
    </clipPath>
    <clipPath
       clipPathUnits="userSpaceOnUse"
       id="clipPath1058">
      <rect
         style="opacity:1;fill:#d3d3d3;fill-opacity:1;stroke:none;stroke-width:1.05833328;stroke-linecap:round;stroke-linejoin:round;stroke-miterlimit:4;stroke-dasharray:none;stroke-dashoffset:0;stroke-opacity:1"
         id="rect1060"
         width="84.402069"
         height="28.574999"
         x="-27.384375"
         y="59.663544"
         rx="5.6885405"
         ry="5.6885405"
         transform="rotate(-1.1205208)" />
    </clipPath>
    <linearGradient
       inkscape:collect="always"
       xlink:href="#linearGradient1613"
       id="linearGradient1615"
       x1="5.2916665"
       y1="4.2333331"
       x2="5.2916665"
       y2="6.8791666"
       gradientUnits="userSpaceOnUse" />
    <linearGradient
       inkscape:collect="always"
       xlink:href="#linearGradient1668-3"
       id="linearGradient1693"
       x1="3.96875"
       y1="5.2916665"
       x2="6.6145835"
       y2="5.2916665"
       gradientUnits="userSpaceOnUse" />
    <linearGradient
       inkscape:collect="always"
       xlink:href="#linearGradient967"
       id="linearGradient1897"
       x1="20"
       y1="11"
       x2="20"
       y2="38"
       gradientUnits="userSpaceOnUse" />
  </defs>
  <metadata
     id="metadata5">
    <rdf:RDF>
      <cc:Work
         rdf:about="">
        <dc:format>image/svg+xml</dc:format>
        <dc:type
           rdf:resource="http://purl.org/dc/dcmitype/StillImage" />
        <dc:title></dc:title>
      </cc:Work>
    </rdf:RDF>
  </metadata>
  <rect
     ry="0"
     rx="0"
     y="1.6894531e-06"
     x="0"
     height="10.318749"
     width="10.583333"
     id="rect1009"
     style="opacity:1;fill:#d3d7cf;fill-opacity:1;stroke:none;stroke-width:0.18708867;stroke-linecap:round;stroke-miterlimit:4;stroke-dasharray:none;stroke-opacity:1" />
  <path
     inkscape:connector-curvature="0"
     id="rect1011"
     d="m 1.0583194,0.79376 c 0,0 8.4666942,0 8.4666942,0 0.5863094,0 1.0583194,0.47201 1.0583194,1.05832 0,0 0,8.99584 0,8.99584 0,0 -10.583333,0 -10.583333,0 0,0 0,-8.99584 0,-8.99584 0,-0.58631 0.47201047,-1.05832 1.0583194,-1.05832 0,0 0,0 0,0"
     style="opacity:1;fill:url(#linearGradient1023);fill-opacity:1;stroke:none;stroke-width:0.18708867;stroke-linecap:round;stroke-miterlimit:4;stroke-dasharray:none;stroke-opacity:1" />
  <rect
     ry="0"
     rx="0"
     y="10.847902"
     x="1.8799776e-15"
     height="0.26458332"
     width="10.583333"
     id="rect1033"
     style="opacity:1;fill:#00ff00;fill-opacity:1;stroke:none;stroke-width:0.18708867;stroke-linecap:round;stroke-miterlimit:4;stroke-dasharray:none;stroke-opacity:1" />
  <path
     inkscape:connector-curvature="0"
     id="rect1045"
     d="m 0,10.31875 c 0,0 0,0.26458 0,0.26458 0,0 0,0.26459 0,0.26459 0,0 0,0.26458 0,0.26458 0,0 0.52916666,0 0.52916666,0 0,0 0,-0.52917 0,-0.52917 0,0 -0.26458333,0 -0.26458333,0 0,0 0,-0.26458 0,-0.26458 0,0 -0.26458333,0 -0.26458333,0 0,0 0,0 0,0"
     style="opacity:1;fill:#00ff00;fill-opacity:1;stroke:none;stroke-width:0.18708867;stroke-linecap:round;stroke-miterlimit:4;stroke-dasharray:none;stroke-opacity:1" />
  <path
     inkscape:connector-curvature="0"
     style="opacity:1;fill:#00ff00;fill-opacity:1;stroke:none;stroke-width:0.18708867;stroke-linecap:round;stroke-miterlimit:4;stroke-dasharray:none;stroke-opacity:1"
     d="m 10.583333,10.31876 c 0,0 0,0.26458 0,0.26458 0,0 0,0.26458 0,0.26458 0,0 0,0.26458 0,0.26458 0,0 -0.529166,0 -0.529166,0 0,0 0,-0.52916 0,-0.52916 0,0 0.264583,0 0.264583,0 0,0 0,-0.26458 0,-0.26458 0,0 0.264583,0 0.264583,0"
     id="path1050" />
  <rect
     y="1.6894531e-06"
     x="0"
     height="0.26458332"
     width="0.52916664"
     id="rect1053"
     style="opacity:1;fill:#00ff00;fill-opacity:1;stroke:none;stroke-width:0.18708867;stroke-linecap:round;stroke-miterlimit:4;stroke-dasharray:none;stroke-opacity:1" />
  <rect
     y="1.6894531e-06"
     x="0"
     height="0.52916664"
     width="0.26458332"
     id="rect1055"
     style="opacity:1;fill:#00ff00;fill-opacity:1;stroke:none;stroke-width:0.18708867;stroke-linecap:round;stroke-miterlimit:4;stroke-dasharray:none;stroke-opacity:1" />
  <rect
     y="1.6894531e-06"
     x="10.054167"
     height="0.26458332"
     width="0.52916664"
     id="rect1057"
     style="opacity:1;fill:#00ff00;fill-opacity:1;stroke:none;stroke-width:0.18708867;stroke-linecap:round;stroke-miterlimit:4;stroke-dasharray:none;stroke-opacity:1" />
  <rect
     y="1.6894531e-06"
     x="10.318749"
     height="0.52916664"
     width="0.26458332"
     id="rect1059"
     style="opacity:1;fill:#00ff00;fill-opacity:1;stroke:none;stroke-width:0.18708867;stroke-linecap:round;stroke-miterlimit:4;stroke-dasharray:none;stroke-opacity:1" />
  <path
     id="path1889"
     transform="scale(0.26458333)"
     d="M 13 13 C 12.681959 13 12.2834 13.224079 11.824219 13.5 L 7.984375 13.5 C 7.4387412 13.5 7 13.972941 7 14.560547 L 7 15 C 5.3417674 15 5.0122585 24.37204 5 27 C 5 28 6.0000001 29 7 29 C 9.0000002 29 11 31 13.060547 31 L 20 31 L 26.939453 31 C 29 31 31 29 33 29 C 34 29 35 28 35 27 C 34.98774 24.37204 34.658233 15 33 15 L 33 14.560547 C 33 13.972941 32.561259 13.5 32.015625 13.5 L 28.175781 13.5 C 27.7166 13.224079 27.318041 13 27 13 L 20 13 L 13 13 z "
     style="opacity:1;fill:#d3d7cf;fill-opacity:1;stroke:url(#linearGradient1897);stroke-width:3.99999999;stroke-linecap:round;stroke-linejoin:round;stroke-miterlimit:4;stroke-dasharray:none;stroke-dashoffset:0;stroke-opacity:1" />
  <path
     style="opacity:1;fill:#d3d7cf;fill-opacity:1;stroke:#888a85;stroke-width:1.99999999;stroke-linecap:round;stroke-linejoin:round;stroke-miterlimit:4;stroke-dasharray:none;stroke-dashoffset:0;stroke-opacity:1"
     d="M 13 13 C 12.681959 13 12.2834 13.224079 11.824219 13.5 L 7.984375 13.5 C 7.4387412 13.5 7 13.972941 7 14.560547 L 7 15 C 5.3417674 15 5.0122585 24.37204 5 27 C 5 28 6.0000001 29 7 29 C 9.0000002 29 11 31 13.060547 31 L 20 31 L 26.939453 31 C 29 31 31 29 33 29 C 34 29 35 28 35 27 C 34.98774 24.37204 34.658233 15 33 15 L 33 14.560547 C 33 13.972941 32.561259 13.5 32.015625 13.5 L 28.175781 13.5 C 27.7166 13.224079 27.318041 13 27 13 L 20 13 L 13 13 z "
     transform="scale(0.26458333)"
     id="rect1838" />
  <g
     id="g1836">
    <g
       transform="matrix(0.92857147,0,0,1,0.37797597,-0.13229171)"
       id="g1620">
      <rect
         style="opacity:1;fill:#d3d7cf;fill-opacity:1;stroke:none;stroke-width:1.05833328;stroke-linecap:round;stroke-linejoin:round;stroke-miterlimit:4;stroke-dasharray:none;stroke-dashoffset:0;stroke-opacity:1"
         id="rect1584"
         width="1.8520833"
         height="0.79374999"
         x="1.5875"
         y="3.7041667"
         rx="0.28063294"
         ry="0.28063294" />
      <rect
         ry="0.28063294"
         rx="0.28063294"
         y="3.7041667"
         x="7.1437497"
         height="0.79374999"
         width="1.8520833"
         id="rect1586"
         style="opacity:1;fill:#d3d7cf;fill-opacity:1;stroke:none;stroke-width:1.05833328;stroke-linecap:round;stroke-linejoin:round;stroke-miterlimit:4;stroke-dasharray:none;stroke-dashoffset:0;stroke-opacity:1" />
    </g>
    <path
       id="path1635"
       d="m 3.4395833,3.4395833 c -0.2645833,0 -0.6407878,0.5291667 -1.5875,0.5291667 -0.4387407,0 -0.5259233,2.4796855 -0.5291667,3.1749999 0,0.2645833 0.2645834,0.5291667 0.5291667,0.5291667 0.5291667,0 1.0583333,0.5291666 1.6035197,0.5291666 h 1.8360636 1.8360636 c 0.5451864,0 1.074353,-0.5291666 1.6035197,-0.5291666 0.2645833,0 0.5291667,-0.2645834 0.5291667,-0.5291667 C 9.2571728,6.4484355 9.1699907,3.96875 8.7312499,3.96875 c -0.9467122,0 -1.3229167,-0.5291667 -1.5875,-0.5291667 H 5.2916666 Z"
       style="opacity:1;fill:#4a5492;fill-opacity:1;stroke:none;stroke-width:1.05833328;stroke-linecap:round;stroke-linejoin:round;stroke-miterlimit:4;stroke-dasharray:none;stroke-dashoffset:0;stroke-opacity:1"
       inkscape:connector-curvature="0" />
    <circle
       r="0.26458332"
       cy="5.0270834"
       cx="8.7312498"
       id="path1592"
       style="opacity:1;fill:#d3d7cf;fill-opacity:1;stroke:none;stroke-width:1.05833328;stroke-linecap:round;stroke-linejoin:round;stroke-miterlimit:4;stroke-dasharray:none;stroke-dashoffset:0;stroke-opacity:1" />
    <circle
       r="0.26458332"
       cy="5.5562501"
       cx="8.2020836"
       id="path1594"
       style="opacity:1;fill:#d3d7cf;fill-opacity:1;stroke:none;stroke-width:1.05833328;stroke-linecap:round;stroke-linejoin:round;stroke-miterlimit:4;stroke-dasharray:none;stroke-dashoffset:0;stroke-opacity:1" />
    <rect
       ry="0.26458332"
       rx="0.28063294"
       y="6.3499999"
       x="2.3812499"
       height="0.26458332"
       width="0.26458332"
       id="rect1600"
       style="opacity:1;fill:#d3d7cf;fill-opacity:1;stroke:none;stroke-width:1.05833328;stroke-linecap:round;stroke-linejoin:round;stroke-miterlimit:4;stroke-dasharray:none;stroke-dashoffset:0;stroke-opacity:1" />
    <rect
       ry="0.26458332"
       rx="0.28063294"
       y="6.8791666"
       x="2.3812499"
       height="0.26458332"
       width="0.26458332"
       id="rect1602"
       style="opacity:1;fill:#d3d7cf;fill-opacity:1;stroke:none;stroke-width:1.05833328;stroke-linecap:round;stroke-linejoin:round;stroke-miterlimit:4;stroke-dasharray:none;stroke-dashoffset:0;stroke-opacity:1" />
    <path
       id="rect1604"
       d="m 3.525883,3.96875 c -0.1554708,0 -0.2450526,0.1223806 -0.2806031,0.2645833 C 2.9806966,5.2916666 3.0334696,6.4409623 3.0390909,7.1437499 3.0402509,7.2903243 3.1688653,7.3706261 3.319694,7.4083332 3.8558753,7.5423786 4.5587806,7.6080309 5.2916666,7.606254 6.0245526,7.608024 6.7274579,7.542379 7.2636392,7.4083332 7.4144679,7.3706261 7.5430699,7.2903243 7.5442423,7.1437499 7.5498647,6.4409623 7.6026366,5.2916666 7.3380533,4.2333333 7.3025028,4.0911306 7.212921,3.96875 7.0574502,3.96875 H 5.2916666 Z"
       style="opacity:1;fill:#2e3436;fill-opacity:1;stroke:none;stroke-width:1.05833328;stroke-linecap:round;stroke-linejoin:round;stroke-miterlimit:4;stroke-dasharray:none;stroke-dashoffset:0;stroke-opacity:1"
       inkscape:connector-curvature="0" />
    <rect
       ry="0"
       rx="0"
       y="4.2333331"
       x="3.4395833"
       height="2.6458333"
       width="3.7041667"
       id="rect1607"
       style="opacity:1;fill:url(#linearGradient1615);fill-opacity:1;stroke:none;stroke-width:1.09828436;stroke-linecap:round;stroke-linejoin:round;stroke-miterlimit:4;stroke-dasharray:none;stroke-dashoffset:0;stroke-opacity:1" />
    <path
       id="rect1622"
       d="M 2.1166666,4.7624999 V 5.0270833 H 1.8520833 V 5.2916666 H 2.1166666 V 5.5562499 H 2.38125 V 5.2916666 H 2.6458333 V 5.0270833 H 2.38125 V 4.7624999 Z"
       style="opacity:1;fill:#eeeeec;fill-opacity:1;stroke:none;stroke-width:1.05833328;stroke-linecap:round;stroke-linejoin:round;stroke-miterlimit:4;stroke-dasharray:none;stroke-dashoffset:0;stroke-opacity:1"
       inkscape:connector-curvature="0" />
    <rect
       ry="0.2645832"
       rx="0.2645832"
       y="5.0270834"
       x="3.96875"
       height="0.52916664"
       width="2.6458333"
       id="rect1685"
       style="opacity:1;fill:url(#linearGradient1693);fill-opacity:1;stroke:none;stroke-width:1.05833328;stroke-linecap:round;stroke-linejoin:round;stroke-miterlimit:4;stroke-dasharray:none;stroke-dashoffset:0;stroke-opacity:1" />
    <rect
       ry="0"
       rx="0"
       y="6.0854168"
       x="4.2333331"
       height="0.26458332"
       width="2.1166666"
       id="rect1695"
       style="opacity:1;fill:#555753;fill-opacity:1;stroke:none;stroke-width:1.05833328;stroke-linecap:round;stroke-linejoin:round;stroke-miterlimit:4;stroke-dasharray:none;stroke-dashoffset:0;stroke-opacity:1" />
    <rect
       y="7.1437497"
       x="3.96875"
       height="0.26458317"
       width="2.6458333"
       id="rect1697"
       style="opacity:1;fill:#555753;fill-opacity:1;stroke:none;stroke-width:1.05833328;stroke-linecap:round;stroke-linejoin:round;stroke-miterlimit:4;stroke-dasharray:none;stroke-dashoffset:0;stroke-opacity:1" />
  </g>
</svg>
