<?xml version="1.0" encoding="UTF-8" standalone="no"?>
<svg
   xmlns:dc="http://purl.org/dc/elements/1.1/"
   xmlns:cc="http://creativecommons.org/ns#"
   xmlns:rdf="http://www.w3.org/1999/02/22-rdf-syntax-ns#"
   xmlns:svg="http://www.w3.org/2000/svg"
   xmlns="http://www.w3.org/2000/svg"
   xmlns:xlink="http://www.w3.org/1999/xlink"
   id="svg8"
   version="1.1"
   viewBox="0 0 10.583333 11.1125"
   height="42"
   width="40">
  <defs
     id="defs2">
    <linearGradient
       id="linearGradient967">
      <stop
         style="stop-color:#d3d7cf;stop-opacity:1"
         offset="0"
         id="stop963" />
      <stop
         style="stop-color:#ffffff;stop-opacity:1"
         offset="1"
         id="stop965" />
    </linearGradient>
    <clipPath
       clipPathUnits="userSpaceOnUse"
       id="clipPath849">
      <rect
         style="opacity:0.21799999;fill:#0000ff;stroke-width:0.26458332"
         id="rect851"
         width="67.73333"
         height="50.799999"
         x="0"
         y="246.19998" />
    </clipPath>
    <clipPath
       clipPathUnits="userSpaceOnUse"
       id="clipPath1369">
      <rect
         ry="1.8520776"
         rx="1.8520776"
         y="385.37082"
         x="0.79374999"
         height="13.49375"
         width="15.08125"
         id="rect1371"
         style="opacity:1;fill:#ffffff;fill-opacity:1;stroke:none;stroke-width:0.5;stroke-miterlimit:4;stroke-dasharray:none" />
    </clipPath>
    <clipPath
       clipPathUnits="userSpaceOnUse"
       id="clipPath1517">
      <rect
         style="opacity:1;fill:#007ea7;fill-opacity:1;stroke:none;stroke-width:0.48038447;stroke-linecap:round;stroke-miterlimit:4;stroke-dasharray:none;stroke-opacity:1"
         id="rect1519"
         width="67.73333"
         height="50.799999"
         x="-7.5199102e-15"
         y="171.55629" />
    </clipPath>
    <clipPath
       clipPathUnits="userSpaceOnUse"
       id="clipPath949">
      <rect
         style="opacity:0.21799999;fill:#0000ff;stroke-width:0.26458332"
         id="rect951"
         width="67.73333"
         height="50.799999"
         x="-2.1166673"
         y="246.19998" />
    </clipPath>
    <linearGradient
       xlink:href="#linearGradient967"
       id="linearGradient1023"
       x1="5.2916665"
       y1="296.73538"
       x2="5.2916665"
       y2="292.76663"
       gradientUnits="userSpaceOnUse" />
    <linearGradient
       xlink:href="#linearGradient967"
       id="linearGradient1031"
       x1="5.2916665"
       y1="287.47498"
       x2="5.2916665"
       y2="296.99997"
       gradientUnits="userSpaceOnUse" />
  </defs>
  <metadata
     id="metadata5">
    <rdf:RDF>
      <cc:Work
         rdf:about="">
        <dc:format>image/svg+xml</dc:format>
        <dc:type
           rdf:resource="http://purl.org/dc/dcmitype/StillImage" />
        <dc:title></dc:title>
      </cc:Work>
    </rdf:RDF>
  </metadata>
  <g
     id="layer1"
     transform="translate(0,-285.88748)">
    <rect
       style="opacity:1;stroke-opacity:1;fill-opacity:1;stroke:none;stroke-linecap:round;stroke-miterlimit:4;stroke-dasharray:none;stroke-width:0.187088669185;fill:#d3d7cf"
       id="rect1009"
       width="10.583333"
       height="10.318749"
       x="0"
       y="285.88748"
       rx="0"
       ry="0"
       transform="matrix(1.000000,0.000000,0.000000,1.000000,0.000000,0.000000)" />
    <path
       style="opacity:1;stroke-opacity:1;fill-opacity:1;stroke:none;stroke-linecap:round;stroke-miterlimit:4;stroke-dasharray:none;stroke-width:0.187088669185;fill:url(#linearGradient1023)"
       d="M1.0583194 286.68124C1.0583194 286.68124 9.5250136 286.68124 9.5250136 286.68124C10.111323 286.68124 10.583333 287.15325 10.583333 287.73956C10.583333 287.73956 10.583333 296.7354 10.583333 296.7354C10.583333 296.7354 0.0 296.7354 0.0 296.7354C0.0 296.7354 0.0 287.73956 0.0 287.73956C0.0 287.15325 0.47201047 286.68124 1.0583194 286.68124C1.0583194 286.68124 1.0583194 286.68124 1.0583194 286.68124"
       id="rect1011" />
    <rect
       style="opacity:1;stroke-opacity:1;fill-opacity:1;stroke:none;stroke-linecap:round;stroke-miterlimit:4;stroke-dasharray:none;stroke-width:0.187088669185;fill:url(#linearGradient1031)"
       id="rect1015"
       width="8.4666672"
       height="8.466671"
       x="1.0583333"
       y="287.47498"
       rx="0.52916664"
       ry="0.52916664"
       transform="matrix(1.000000,0.000000,0.000000,1.000000,0.000000,0.000000)" />
    <rect
       style="opacity:1;stroke-opacity:1;fill-opacity:1;stroke:none;stroke-linecap:round;stroke-miterlimit:4;stroke-dasharray:none;stroke-width:0.187088669185;fill:#888a85"
       id="rect1013"
       width="7.9375"
       height="7.9375005"
       x="1.3229166"
       y="287.73956"
       rx="0.26458368"
       ry="0.26458368"
       transform="matrix(1.000000,0.000000,0.000000,1.000000,0.000000,0.000000)" />
    <rect
       style="opacity:1;stroke-opacity:1;fill-opacity:1;stroke:none;stroke-linecap:round;stroke-miterlimit:4;stroke-dasharray:none;stroke-width:0.0438490415441;fill:#ffffff"
       id="rect1356"
       width="7.4083333"
       height="7.4083333"
       x="1.5874999"
       y="288.00415"
       rx="0.26458338"
       ry="0.26458338"
       transform="matrix(1.000000,0.000000,0.000000,1.000000,0.000000,0.000000)" />
    <rect
       style="opacity:1;stroke-opacity:1;fill-opacity:1;stroke:none;stroke-linecap:round;stroke-miterlimit:4;stroke-dasharray:none;stroke-width:0.0438490415441;fill:#babdb6"
       id="rect1358"
       width="7.4083333"
       height="0.52916777"
       x="1.5874999"
       y="291.44373"
       rx="0"
       ry="0"
       transform="matrix(1.000000,0.000000,0.000000,1.000000,0.000000,0.000000)" />
    <rect
       style="opacity:1;stroke-opacity:1;fill-opacity:1;stroke:none;stroke-linecap:round;stroke-miterlimit:4;stroke-dasharray:none;stroke-width:0.0438490415441;fill:#555753"
       id="rect1360"
       width="4.7625003"
       height="2.910419"
       x="2.9104166"
       y="288.26874"
       transform="matrix(1.000000,0.000000,0.000000,1.000000,0.000000,0.000000)" />
    <rect
       style="opacity:1;stroke-opacity:1;fill-opacity:1;stroke:none;stroke-linecap:round;stroke-miterlimit:4;stroke-dasharray:none;stroke-width:0.0438490415441;fill:#555753"
       id="rect1362"
       width="3.7041667"
       height="2.6458342"
       x="3.4395833"
       y="292.23749"
       transform="matrix(1.000000,0.000000,0.000000,1.000000,0.000000,0.000000)" />
    <rect
       style="opacity:1;stroke-opacity:1;fill-opacity:1;stroke:none;stroke-linecap:round;stroke-miterlimit:4;stroke-dasharray:none;stroke-width:0.187088669185;fill:#00ff00"
       id="rect1033"
       width="10.583333"
       height="0.26458332"
       x="1.8799776e-15"
       y="296.73538"
       rx="0"
       ry="0"
       transform="matrix(1.000000,0.000000,0.000000,1.000000,0.000000,0.000000)" />
    <path
       style="opacity:1;stroke-opacity:1;fill-opacity:1;stroke:none;stroke-linecap:round;stroke-miterlimit:4;stroke-dasharray:none;stroke-width:0.187088671825;fill:#00ff00"
       d="M0.0 296.20622987C0.0 296.20622987 0.0 296.4708132 0.0 296.4708132C0.0 296.4708132 0.0 296.73539653 0.0 296.73539653C0.0 296.73539653 0.0 296.99997986 0.0 296.99997986C0.0 296.99997986 0.52916666 296.99997986 0.52916666 296.99997986C0.52916666 296.99997986 0.52916666 296.4708132 0.52916666 296.4708132C0.52916666 296.4708132 0.26458333 296.4708132 0.26458333 296.4708132C0.26458333 296.4708132 0.26458333 296.20622987 0.26458333 296.20622987C0.26458333 296.20622987 0.0 296.20622987 0.0 296.20622987C0.0 296.20622987 0.0 296.20622987 0.0 296.20622987"
       id="rect1045" />
    <path
       id="path1050"
       d="M10.583333 296.20624C10.583333 296.20624 10.583333 296.47082 10.583333 296.47082C10.583333 296.47082 10.583333 296.7354 10.583333 296.7354C10.583333 296.7354 10.583333 296.99998 10.583333 296.99998C10.583333 296.99998 10.054167 296.99998 10.054167 296.99998C10.054167 296.99998 10.054167 296.47082 10.054167 296.47082C10.054167 296.47082 10.31875 296.47082 10.31875 296.47082C10.31875 296.47082 10.31875 296.20624 10.31875 296.20624C10.31875 296.20624 10.583333 296.20624 10.583333 296.20624"
       style="opacity:1;stroke-opacity:1;fill-opacity:1;stroke:none;stroke-linecap:round;stroke-miterlimit:4;stroke-dasharray:none;stroke-width:0.187088669185;fill:#00ff00" />
    <rect
       style="opacity:1;stroke-opacity:1;fill-opacity:1;stroke:none;stroke-linecap:round;stroke-miterlimit:4;stroke-dasharray:none;stroke-width:0.187088669185;fill:#00ff00"
       id="rect1053"
       width="0.52916664"
       height="0.26458332"
       x="0"
       y="285.88748"
       transform="matrix(1.000000,0.000000,0.000000,1.000000,0.000000,0.000000)" />
    <rect
       style="opacity:1;stroke-opacity:1;fill-opacity:1;stroke:none;stroke-linecap:round;stroke-miterlimit:4;stroke-dasharray:none;stroke-width:0.187088669185;fill:#00ff00"
       id="rect1055"
       width="0.26458332"
       height="0.52916664"
       x="0"
       y="285.88748"
       transform="matrix(1.000000,0.000000,0.000000,1.000000,0.000000,0.000000)" />
    <rect
       style="opacity:1;stroke-opacity:1;fill-opacity:1;stroke:none;stroke-linecap:round;stroke-miterlimit:4;stroke-dasharray:none;stroke-width:0.187088669185;fill:#00ff00"
       id="rect1057"
       width="0.52916664"
       height="0.26458332"
       x="10.054167"
       y="285.88748"
       transform="matrix(1.000000,0.000000,0.000000,1.000000,0.000000,0.000000)" />
    <rect
       style="opacity:1;stroke-opacity:1;fill-opacity:1;stroke:none;stroke-linecap:round;stroke-miterlimit:4;stroke-dasharray:none;stroke-width:0.187088669185;fill:#00ff00"
       id="rect1059"
       width="0.26458332"
       height="0.52916664"
       x="10.318749"
       y="285.88748"
       transform="matrix(1.000000,0.000000,0.000000,1.000000,0.000000,0.000000)" />
    <ellipse
       style="opacity:1;stroke-opacity:1;fill-opacity:1;stroke:none;stroke-linecap:round;stroke-miterlimit:4;stroke-dasharray:none;stroke-width:0.140317807768;fill:#888a85"
       id="path911"
       cx="2.2489583"
       cy="292.89896"
       rx="0.39687502"
       ry="0.39688227" />
    <rect
       style="opacity:1;stroke-opacity:1;fill-opacity:1;stroke:none;stroke-linecap:round;stroke-miterlimit:4;stroke-dasharray:none;stroke-width:0.187088669185;fill:#888a85"
       id="rect919"
       width="0.26458332"
       height="0.79374999"
       x="2.3812499"
       y="293.82498"
       transform="matrix(1.000000,0.000000,0.000000,1.000000,0.000000,0.000000)" />
    <rect
       style="opacity:1;stroke-opacity:1;fill-opacity:1;stroke:none;stroke-linecap:round;stroke-miterlimit:4;stroke-dasharray:none;stroke-width:0.187088669185;fill:#888a85"
       id="rect921"
       width="0.79374999"
       height="0.26458332"
       x="2.1166666"
       y="294.08957"
       transform="matrix(1.000000,0.000000,0.000000,1.000000,0.000000,0.000000)" />
    <circle
       style="opacity:1;stroke-opacity:1;fill-opacity:1;stroke:none;stroke-linecap:round;stroke-miterlimit:4;stroke-dasharray:none;stroke-width:0.187088669185;fill:#888a85"
       id="path923"
       cx="8.2020836"
       cy="292.50208"
       r="0.26458332" />
    <circle
       style="opacity:1;stroke-opacity:1;fill-opacity:1;stroke:none;stroke-linecap:round;stroke-miterlimit:4;stroke-dasharray:none;stroke-width:0.187088669185;fill:#888a85"
       id="path925"
       cx="7.6729164"
       cy="293.03122"
       r="0.26458332" />
    <circle
       style="opacity:1;stroke-opacity:1;fill-opacity:1;stroke:none;stroke-linecap:round;stroke-miterlimit:4;stroke-dasharray:none;stroke-width:0.187088669185;fill:#888a85"
       id="path927"
       cx="8.2020836"
       cy="293.56039"
       r="0.26458332" />
    <circle
       style="opacity:1;stroke-opacity:1;fill-opacity:1;stroke:none;stroke-linecap:round;stroke-miterlimit:4;stroke-dasharray:none;stroke-width:0.187088669185;fill:#888a85"
       id="path929"
       cx="8.7312498"
       cy="293.03122"
       r="0.26458332" />
    <circle
       style="opacity:1;stroke-opacity:1;fill-opacity:1;stroke:none;stroke-linecap:round;stroke-miterlimit:4;stroke-dasharray:none;stroke-width:0.187088669185;fill:#888a85"
       id="path931"
       cx="7.5406251"
       cy="294.22186"
       r="0.13229166" />
    <circle
       style="opacity:1;stroke-opacity:1;fill-opacity:1;stroke:none;stroke-linecap:round;stroke-miterlimit:4;stroke-dasharray:none;stroke-width:0.187088669185;fill:#888a85"
       id="path933"
       cx="7.5406251"
       cy="294.75101"
       r="0.13229166" />
    <circle
       style="opacity:1;stroke-opacity:1;fill-opacity:1;stroke:none;stroke-linecap:round;stroke-miterlimit:4;stroke-dasharray:none;stroke-width:0.187088669185;fill:#d3d7cf"
       id="path935"
       cx="2.2489583"
       cy="289.45935"
       r="0.39687499" />
    <circle
       style="opacity:1;stroke-opacity:1;fill-opacity:1;stroke:none;stroke-linecap:round;stroke-miterlimit:4;stroke-dasharray:none;stroke-width:0.187088669185;fill:#d3d7cf"
       id="path937"
       cx="8.3343744"
       cy="289.45935"
       r="0.39687499" />
    <rect
       style="opacity:1;stroke-opacity:1;fill-opacity:1;stroke:none;stroke-linecap:round;stroke-miterlimit:4;stroke-dasharray:none;stroke-width:0.187088669185;fill:#d3d7cf"
       id="rect939"
       width="4.2333331"
       height="2.3812499"
       x="3.175"
       y="288.53333"
       rx="0"
       ry="0"
       transform="matrix(1.000000,0.000000,0.000000,1.000000,0.000000,0.000000)" />
    <rect
       style="opacity:1;stroke-opacity:1;fill-opacity:1;stroke:none;stroke-linecap:round;stroke-miterlimit:4;stroke-dasharray:none;stroke-width:0.187088669185;fill:#d3d7cf"
       id="rect941"
       width="3.175"
       height="2.1166666"
       x="3.7041667"
       y="292.50208"
       transform="matrix(1.000000,0.000000,0.000000,1.000000,0.000000,0.000000)" />
  </g>
</svg>
