<?xml version="1.0" encoding="UTF-8" standalone="no"?>
<svg
   xmlns:dc="http://purl.org/dc/elements/1.1/"
   xmlns:cc="http://creativecommons.org/ns#"
   xmlns:rdf="http://www.w3.org/1999/02/22-rdf-syntax-ns#"
   xmlns:svg="http://www.w3.org/2000/svg"
   xmlns="http://www.w3.org/2000/svg"
   xmlns:xlink="http://www.w3.org/1999/xlink"
   xmlns:sodipodi="http://sodipodi.sourceforge.net/DTD/sodipodi-0.dtd"
   xmlns:inkscape="http://www.inkscape.org/namespaces/inkscape"
   id="svg8"
   version="1.1"
   viewBox="0 0 10.583333 11.1125"
   height="42"
   width="40"
   sodipodi:docname="snes.svg"
   inkscape:version="0.92.2 (unknown)"
   inkscape:export-filename="/home/georg/Partition E/Software/Videospiele/Nintendo/Nintendo DS/NDS Software/nds_flashcard_theme_opends/src/supercard_dstwo/plugin_menu/PNG/snes.png"
   inkscape:export-xdpi="96"
   inkscape:export-ydpi="96">
  <sodipodi:namedview
     pagecolor="#ffffff"
     bordercolor="#666666"
     borderopacity="1"
     objecttolerance="10"
     gridtolerance="10"
     guidetolerance="10"
     inkscape:pageopacity="0"
     inkscape:pageshadow="2"
     inkscape:window-width="1920"
     inkscape:window-height="1020"
     id="namedview47"
     showgrid="true"
     inkscape:snap-bbox="true"
     inkscape:object-paths="true"
     inkscape:bbox-nodes="true"
     inkscape:snap-global="true"
     inkscape:snap-others="true"
     inkscape:measure-start="0,0"
     inkscape:measure-end="0,0"
     inkscape:snap-bbox-midpoints="true"
     inkscape:bbox-paths="true"
     inkscape:snap-bbox-edge-midpoints="true"
     inkscape:snap-to-guides="false"
     inkscape:snap-intersection-paths="true"
     inkscape:snap-nodes="true"
     inkscape:object-nodes="true"
     inkscape:snap-smooth-nodes="true"
     inkscape:zoom="5.6568543"
     inkscape:cx="-7.7648413"
     inkscape:cy="38.678304"
     inkscape:window-x="0"
     inkscape:window-y="28"
     inkscape:window-maximized="1"
     inkscape:current-layer="svg8">
    <inkscape:grid
       type="xygrid"
       id="grid854"
       empspacing="4" />
  </sodipodi:namedview>
  <defs
     id="defs2">
    <linearGradient
       id="linearGradient967">
      <stop
         style="stop-color:#d3d7cf;stop-opacity:1"
         offset="0"
         id="stop963" />
      <stop
         style="stop-color:#ffffff;stop-opacity:1"
         offset="1"
         id="stop965" />
    </linearGradient>
    <clipPath
       clipPathUnits="userSpaceOnUse"
       id="clipPath849">
      <rect
         style="opacity:0.21799999;fill:#0000ff;stroke-width:0.26458332"
         id="rect851"
         width="67.73333"
         height="50.799999"
         x="0"
         y="246.19998" />
    </clipPath>
    <clipPath
       clipPathUnits="userSpaceOnUse"
       id="clipPath1369">
      <rect
         ry="1.8520776"
         rx="1.8520776"
         y="385.37082"
         x="0.79374999"
         height="13.49375"
         width="15.08125"
         id="rect1371"
         style="opacity:1;fill:#ffffff;fill-opacity:1;stroke:none;stroke-width:0.5;stroke-miterlimit:4;stroke-dasharray:none" />
    </clipPath>
    <clipPath
       clipPathUnits="userSpaceOnUse"
       id="clipPath1517">
      <rect
         style="opacity:1;fill:#007ea7;fill-opacity:1;stroke:none;stroke-width:0.48038447;stroke-linecap:round;stroke-miterlimit:4;stroke-dasharray:none;stroke-opacity:1"
         id="rect1519"
         width="67.73333"
         height="50.799999"
         x="-7.5199102e-15"
         y="171.55629" />
    </clipPath>
    <clipPath
       clipPathUnits="userSpaceOnUse"
       id="clipPath949">
      <rect
         style="opacity:0.21799999;fill:#0000ff;stroke-width:0.26458332"
         id="rect951"
         width="67.73333"
         height="50.799999"
         x="-2.1166673"
         y="246.19998" />
    </clipPath>
    <linearGradient
       xlink:href="#linearGradient967"
       id="linearGradient1023"
       x1="5.2916665"
       y1="296.73538"
       x2="5.2916665"
       y2="292.76663"
       gradientUnits="userSpaceOnUse"
       gradientTransform="translate(0,-285.88748)" />
    <linearGradient
       xlink:href="#linearGradient967"
       id="linearGradient1031"
       x1="5.2916665"
       y1="287.47498"
       x2="5.2916665"
       y2="296.99997"
       gradientUnits="userSpaceOnUse"
       gradientTransform="translate(0,-285.88748)" />
    <linearGradient
       inkscape:collect="always"
       xlink:href="#linearGradient967"
       id="linearGradient998"
       x1="20"
       y1="7"
       x2="20"
       y2="43"
       gradientUnits="userSpaceOnUse" />
    <linearGradient
       inkscape:collect="always"
       xlink:href="#linearGradient967"
       id="linearGradient1006"
       x1="20"
       y1="7"
       x2="20"
       y2="43"
       gradientUnits="userSpaceOnUse" />
    <clipPath
       clipPathUnits="userSpaceOnUse"
       id="clipPath1051">
      <rect
         style="opacity:1;fill:#d3d3d3;fill-opacity:1;stroke:none;stroke-width:1.05833328;stroke-linecap:round;stroke-linejoin:round;stroke-miterlimit:4;stroke-dasharray:none;stroke-dashoffset:0;stroke-opacity:1"
         id="rect1054"
         width="44.714584"
         height="55.959373"
         x="-13.626041"
         y="-20.902082"
         rx="2.9104171"
         ry="2.9104171"
         transform="rotate(-0.49069036)" />
    </clipPath>
    <clipPath
       clipPathUnits="userSpaceOnUse"
       id="clipPath1058">
      <rect
         style="opacity:1;fill:#d3d3d3;fill-opacity:1;stroke:none;stroke-width:1.05833328;stroke-linecap:round;stroke-linejoin:round;stroke-miterlimit:4;stroke-dasharray:none;stroke-dashoffset:0;stroke-opacity:1"
         id="rect1060"
         width="84.402069"
         height="28.574999"
         x="-27.384375"
         y="59.663544"
         rx="5.6885405"
         ry="5.6885405"
         transform="rotate(-1.1205208)" />
    </clipPath>
    <linearGradient
       inkscape:collect="always"
       xlink:href="#linearGradient967"
       id="linearGradient1265"
       x1="20"
       y1="5"
       x2="20"
       y2="46"
       gradientUnits="userSpaceOnUse" />
  </defs>
  <metadata
     id="metadata5">
    <rdf:RDF>
      <cc:Work
         rdf:about="">
        <dc:format>image/svg+xml</dc:format>
        <dc:type
           rdf:resource="http://purl.org/dc/dcmitype/StillImage" />
        <dc:title></dc:title>
      </cc:Work>
    </rdf:RDF>
  </metadata>
  <rect
     ry="0"
     rx="0"
     y="1.6894531e-06"
     x="0"
     height="10.318749"
     width="10.583333"
     id="rect1009"
     style="opacity:1;fill:#d3d7cf;fill-opacity:1;stroke:none;stroke-width:0.18708867;stroke-linecap:round;stroke-miterlimit:4;stroke-dasharray:none;stroke-opacity:1" />
  <path
     inkscape:connector-curvature="0"
     id="rect1011"
     d="m 1.0583194,0.79376 c 0,0 8.4666942,0 8.4666942,0 0.5863094,0 1.0583194,0.47201 1.0583194,1.05832 0,0 0,8.99584 0,8.99584 0,0 -10.583333,0 -10.583333,0 0,0 0,-8.99584 0,-8.99584 0,-0.58631 0.47201047,-1.05832 1.0583194,-1.05832 0,0 0,0 0,0"
     style="opacity:1;fill:url(#linearGradient1023);fill-opacity:1;stroke:none;stroke-width:0.18708867;stroke-linecap:round;stroke-miterlimit:4;stroke-dasharray:none;stroke-opacity:1" />
  <path
     style="opacity:1;fill:none;fill-opacity:1;stroke:url(#linearGradient1265);stroke-width:3.99999999;stroke-linecap:round;stroke-linejoin:round;stroke-miterlimit:4;stroke-dasharray:none;stroke-dashoffset:0;stroke-opacity:1"
     d="M 9 7 C 7.892 7 7 7.892 7 9 L 7 34 C 7 35.108 7.892 36 9 36 C 9 36.554 9.4460005 37 10 37 L 30 37 C 30.554 37 31 36.554 31 36 C 32.108 36 33 35.108 33 34 L 33 9 C 33 7.892 32.108 7 31 7 L 9 7 z "
     transform="scale(0.26458333)"
     id="rect1197" />
  <path
     style="opacity:1;fill:url(#linearGradient998);fill-opacity:1;stroke:url(#linearGradient1006);stroke-width:3.99999999;stroke-linecap:round;stroke-linejoin:round;stroke-miterlimit:4;stroke-dasharray:none;stroke-dashoffset:0;stroke-opacity:1"
     d="M 11.933594 8 C 11.415979 8 11 8.4159793 11 8.9335938 L 11 20.066406 L 11 35.066406 C 11 35.584021 11.415979 36 11.933594 36 L 17.527344 36 L 20.066406 36 L 25 36 C 27.216 36 29 34.216 29 32 L 29 20.066406 L 29 20 L 29 8.9335938 C 29 8.4159793 28.584021 8 28.066406 8 L 11.933594 8 z "
     id="path990"
     transform="scale(0.26458333)" />
  <rect
     ry="0"
     rx="0"
     y="10.847902"
     x="1.8799776e-15"
     height="0.26458332"
     width="10.583333"
     id="rect1033"
     style="opacity:1;fill:#00ff00;fill-opacity:1;stroke:none;stroke-width:0.18708867;stroke-linecap:round;stroke-miterlimit:4;stroke-dasharray:none;stroke-opacity:1" />
  <path
     inkscape:connector-curvature="0"
     id="rect1045"
     d="m 0,10.31875 c 0,0 0,0.26458 0,0.26458 0,0 0,0.26459 0,0.26459 0,0 0,0.26458 0,0.26458 0,0 0.52916666,0 0.52916666,0 0,0 0,-0.52917 0,-0.52917 0,0 -0.26458333,0 -0.26458333,0 0,0 0,-0.26458 0,-0.26458 0,0 -0.26458333,0 -0.26458333,0 0,0 0,0 0,0"
     style="opacity:1;fill:#00ff00;fill-opacity:1;stroke:none;stroke-width:0.18708867;stroke-linecap:round;stroke-miterlimit:4;stroke-dasharray:none;stroke-opacity:1" />
  <path
     inkscape:connector-curvature="0"
     style="opacity:1;fill:#00ff00;fill-opacity:1;stroke:none;stroke-width:0.18708867;stroke-linecap:round;stroke-miterlimit:4;stroke-dasharray:none;stroke-opacity:1"
     d="m 10.583333,10.31876 c 0,0 0,0.26458 0,0.26458 0,0 0,0.26458 0,0.26458 0,0 0,0.26458 0,0.26458 0,0 -0.529166,0 -0.529166,0 0,0 0,-0.52916 0,-0.52916 0,0 0.264583,0 0.264583,0 0,0 0,-0.26458 0,-0.26458 0,0 0.264583,0 0.264583,0"
     id="path1050" />
  <rect
     y="1.6894531e-06"
     x="0"
     height="0.26458332"
     width="0.52916664"
     id="rect1053"
     style="opacity:1;fill:#00ff00;fill-opacity:1;stroke:none;stroke-width:0.18708867;stroke-linecap:round;stroke-miterlimit:4;stroke-dasharray:none;stroke-opacity:1" />
  <rect
     y="1.6894531e-06"
     x="0"
     height="0.52916664"
     width="0.26458332"
     id="rect1055"
     style="opacity:1;fill:#00ff00;fill-opacity:1;stroke:none;stroke-width:0.18708867;stroke-linecap:round;stroke-miterlimit:4;stroke-dasharray:none;stroke-opacity:1" />
  <rect
     y="1.6894531e-06"
     x="10.054167"
     height="0.26458332"
     width="0.52916664"
     id="rect1057"
     style="opacity:1;fill:#00ff00;fill-opacity:1;stroke:none;stroke-width:0.18708867;stroke-linecap:round;stroke-miterlimit:4;stroke-dasharray:none;stroke-opacity:1" />
  <rect
     y="1.6894531e-06"
     x="10.318749"
     height="0.52916664"
     width="0.26458332"
     id="rect1059"
     style="opacity:1;fill:#00ff00;fill-opacity:1;stroke:none;stroke-width:0.18708867;stroke-linecap:round;stroke-miterlimit:4;stroke-dasharray:none;stroke-opacity:1" />
  <path
     id="path1267"
     transform="scale(0.26458333)"
     d="M 9 7 C 7.892 7 7 7.892 7 9 L 7 34 C 7 35.108 7.892 36 9 36 C 9 36.554 9.4460005 37 10 37 L 30 37 C 30.554 37 31 36.554 31 36 C 32.108 36 33 35.108 33 34 L 33 9 C 33 7.892 32.108 7 31 7 L 9 7 z "
     style="opacity:1;fill:none;fill-opacity:1;stroke:#888a85;stroke-width:1.99999999;stroke-linecap:round;stroke-linejoin:round;stroke-miterlimit:4;stroke-dasharray:none;stroke-dashoffset:0;stroke-opacity:1" />
  <rect
     style="opacity:1;fill:#babdb6;fill-opacity:1;stroke:none;stroke-width:1.05833328;stroke-linecap:round;stroke-linejoin:round;stroke-miterlimit:4;stroke-dasharray:none;stroke-dashoffset:0;stroke-opacity:1"
     id="rect1098"
     width="5.8208332"
     height="0.79374999"
     x="2.3812499"
     y="8.9958334"
     rx="0.26458311"
     ry="0.26458311" />
  <rect
     style="opacity:1;fill:#d3d3d3;fill-opacity:1;stroke:none;stroke-width:1.05833328;stroke-linecap:round;stroke-linejoin:round;stroke-miterlimit:4;stroke-dasharray:none;stroke-dashoffset:0;stroke-opacity:1"
     id="rect1066"
     width="6.8791666"
     height="7.6729164"
     x="1.8520833"
     y="1.8520834"
     rx="0.52916664"
     ry="0.52916664" />
  <path
     inkscape:connector-curvature="0"
     style="opacity:1;fill:#babdb6;fill-opacity:1;stroke:none;stroke-width:1.05833328;stroke-linecap:round;stroke-linejoin:round;stroke-miterlimit:4;stroke-dasharray:none;stroke-dashoffset:0;stroke-opacity:1"
     d="m 2.3812499,2.1166666 c -0.1465791,0 -0.2645833,0.1180042 -0.2645833,0.2645834 l 0,5.5562499 c 0,0.1465791 0.1180047,0.2649625 0.2645833,0.2645833 h 0.5291667 0.2645833 4.2333333 0.2645833 0.5291667 c 0.1465792,0 0.2645833,-0.1180042 0.2645833,-0.2645833 l 0,-5.5562499 c 0,-0.1465792 -0.1180041,-0.2645834 -0.2645833,-0.2645834 H 7.6729165 7.4083332 3.1749999 2.9104166 Z M 2.6458333,2.38125 H 2.9104166 V 2.9104166 H 3.1749999 V 2.38125 H 7.4083332 V 2.9104166 H 7.6729165 V 2.38125 h 0.2645834 c 0.1465792,0 0.2645833,0.1180041 0.2645833,0.2645833 l 0,5.0270832 c 0,0.1465792 -0.1180041,0.2645834 -0.2645833,0.2645834 H 7.6729165 l 0,-1.0583333 H 7.4083332 l 0,1.0583333 H 3.1749999 l 0,-1.0583333 H 2.9104166 l 0,1.0583333 H 2.6458333 c -0.1465792,0 -0.2645834,-0.1180042 -0.2645834,-0.2645834 l 0,-5.0270832 c 0,-0.1465792 0.1180042,-0.2645833 0.2645834,-0.2645833 z"
     id="rect1068"
     sodipodi:nodetypes="ssssccccssssccccssccccccccssssccccccccssss" />
  <rect
     style="opacity:1;fill:#888a85;fill-opacity:1;stroke:none;stroke-width:1.05833328;stroke-linecap:round;stroke-linejoin:round;stroke-miterlimit:4;stroke-dasharray:none;stroke-dashoffset:0;stroke-opacity:1"
     id="rect1079"
     width="5.2916665"
     height="3.96875"
     x="2.645833"
     y="2.9104166"
     rx="0.26458335"
     ry="0.26458335" />
  <path
     style="opacity:1;fill:#555753;fill-opacity:1;stroke:none;stroke-width:0.74835432;stroke-linecap:round;stroke-linejoin:round;stroke-miterlimit:4;stroke-dasharray:none;stroke-dashoffset:0;stroke-opacity:1"
     d="m 3.1749999,4.2333333 v 0.5291666 c 0,0.1465792 0.9440334,0.2645833 2.1166667,0.2645833 1.1726334,0 2.1166666,-0.1180041 2.1166666,-0.2645833 l 0,-0.5291666 H 5.2916666 Z"
     id="rect1085"
     inkscape:connector-curvature="0"
     sodipodi:nodetypes="csssccc" />
  <rect
     style="opacity:1;fill:#555753;fill-opacity:1;stroke:none;stroke-width:1.05833328;stroke-linecap:round;stroke-linejoin:round;stroke-miterlimit:4;stroke-dasharray:none;stroke-dashoffset:0;stroke-opacity:1"
     id="rect1090"
     width="1.5875"
     height="0.79374999"
     x="4.4979167"
     y="5.8208332"
     rx="0.26458338"
     ry="0.26458338" />
  <rect
     style="opacity:1;fill:#555753;fill-opacity:1;stroke:none;stroke-width:1.05833328;stroke-linecap:round;stroke-linejoin:round;stroke-miterlimit:4;stroke-dasharray:none;stroke-dashoffset:0;stroke-opacity:1"
     id="rect1092"
     width="1.0583333"
     height="0.79374999"
     x="6.3499999"
     y="5.8208332"
     rx="0.26458332"
     ry="0.26458332" />
  <rect
     style="opacity:1;fill:#555753;fill-opacity:1;stroke:none;stroke-width:1.05833328;stroke-linecap:round;stroke-linejoin:round;stroke-miterlimit:4;stroke-dasharray:none;stroke-dashoffset:0;stroke-opacity:1"
     id="rect1094"
     width="1.0583333"
     height="0.79374999"
     x="3.1749997"
     y="5.8208332"
     rx="0.26458332"
     ry="0.26458332" />
  <rect
     style="opacity:1;fill:#2e3436;fill-opacity:1;stroke:none;stroke-width:1.05833328;stroke-linecap:round;stroke-linejoin:round;stroke-miterlimit:4;stroke-dasharray:none;stroke-dashoffset:0;stroke-opacity:1"
     id="rect1096"
     width="1.0583333"
     height="0.26458332"
     x="3.1749997"
     y="6.0854168"
     rx="0"
     ry="0" />
  <circle
     style="opacity:1;fill:#babdb6;fill-opacity:1;stroke:none;stroke-width:1.05833328;stroke-linecap:round;stroke-linejoin:round;stroke-miterlimit:4;stroke-dasharray:none;stroke-dashoffset:0;stroke-opacity:1"
     id="path1110"
     cx="7.2760415"
     cy="3.5718749"
     r="0.39687499" />
  <circle
     style="opacity:1;fill:#3465a4;fill-opacity:1;stroke:none;stroke-width:1.05833328;stroke-linecap:round;stroke-linejoin:round;stroke-miterlimit:4;stroke-dasharray:none;stroke-dashoffset:0;stroke-opacity:1"
     id="path1112"
     cx="7.2760415"
     cy="3.3072915"
     r="0.13229166" />
  <circle
     style="opacity:1;fill:#cc0000;fill-opacity:1;stroke:none;stroke-width:1.05833328;stroke-linecap:round;stroke-linejoin:round;stroke-miterlimit:4;stroke-dasharray:none;stroke-dashoffset:0;stroke-opacity:1"
     id="path1114"
     cx="7.5406251"
     cy="3.5718749"
     r="0.13229166" />
  <circle
     style="opacity:1;fill:#73d216;fill-opacity:1;stroke:none;stroke-width:1.05833328;stroke-linecap:round;stroke-linejoin:round;stroke-miterlimit:4;stroke-dasharray:none;stroke-dashoffset:0;stroke-opacity:1"
     id="path1116"
     cx="7.0114584"
     cy="3.5718749"
     r="0.13229166" />
  <circle
     style="opacity:1;fill:#fce94f;fill-opacity:1;stroke:none;stroke-width:1.05833328;stroke-linecap:round;stroke-linejoin:round;stroke-miterlimit:4;stroke-dasharray:none;stroke-dashoffset:0;stroke-opacity:1"
     id="path1118"
     cx="7.2760415"
     cy="3.8364582"
     r="0.13229166" />
  <rect
     style="opacity:1;fill:#babdb6;fill-opacity:1;stroke:none;stroke-width:0.52916664;stroke-linecap:round;stroke-linejoin:round;stroke-miterlimit:4;stroke-dasharray:none;stroke-dashoffset:0;stroke-opacity:1"
     id="rect1288"
     width="5.2916665"
     height="0.79374999"
     x="2.6458333"
     y="8.4666662"
     rx="0.39687499"
     ry="0.39687499" />
  <rect
     style="opacity:1;fill:#888a85;fill-opacity:1;stroke:none;stroke-width:0.52916664;stroke-linecap:round;stroke-linejoin:round;stroke-miterlimit:4;stroke-dasharray:none;stroke-dashoffset:0;stroke-opacity:1"
     id="rect1292"
     width="1.8520833"
     height="0.26458332"
     x="2.9104166"
     y="8.7312498"
     rx="0.13229166"
     ry="0.13229166" />
  <rect
     ry="0.13229166"
     rx="0.13229166"
     y="8.7312498"
     x="5.5562501"
     height="0.26458332"
     width="1.8520833"
     id="rect1294"
     style="opacity:1;fill:#888a85;fill-opacity:1;stroke:none;stroke-width:0.52916664;stroke-linecap:round;stroke-linejoin:round;stroke-miterlimit:4;stroke-dasharray:none;stroke-dashoffset:0;stroke-opacity:1" />
</svg>
